<svg width="29" height="48" viewBox="0 0 29 48" fill="none" xmlns="http://www.w3.org/2000/svg">
<g opacity="0.2">
<path d="M13.7934 47.4791C20.7862 47.4791 26.455 46.7084 26.455 45.7576C26.455 44.8068 20.7862 44.036 13.7934 44.036C6.80062 44.036 1.13184 44.8068 1.13184 45.7576C1.13184 46.7084 6.80062 47.4791 13.7934 47.4791Z" fill="#371A45"/>
</g>
<path d="M20.0418 21.2756H10.453C8.97823 21.2756 7.78271 22.5195 7.78271 24.054V33.7795C7.78271 35.314 8.97823 36.5579 10.453 36.5579H20.0418C21.5165 36.5579 22.712 35.314 22.712 33.7795V24.054C22.712 22.5195 21.5165 21.2756 20.0418 21.2756Z" fill="white"/>
<path d="M20.0413 36.8362H10.4527C8.83294 36.8362 7.51514 35.465 7.51514 33.7797V24.0544C7.51514 22.3688 8.83294 20.9977 10.4527 20.9977H20.0413C21.6612 20.9977 22.9789 22.3688 22.9789 24.0544V33.7797C22.9789 35.465 21.6612 36.8362 20.0413 36.8362ZM10.4527 21.5542C9.12769 21.5542 8.04973 22.6757 8.04973 24.0546V33.78C8.04973 35.1586 9.12755 36.2803 10.4527 36.2803H20.0413C21.3665 36.2803 22.4444 35.1588 22.4444 33.78V24.0544C22.4444 22.6755 21.3666 21.5539 20.0413 21.5539L10.4527 21.5542Z" fill="#371A45"/>
<path d="M24.5279 31.2204C24.5279 31.2204 25.1867 33.3587 23.0211 33.8173C22.631 33.9007 22.2581 33.8667 21.9246 33.74C20.4876 33.1887 19.7924 30.8832 21.6803 28.5763C21.7799 28.454 21.8869 28.3322 22.0011 28.2099C22.0062 28.2053 22.011 28.2003 22.0155 28.195C22.0155 28.195 21.9149 28.0226 21.5946 27.7791C21.3934 27.6269 21.1048 27.4461 20.7005 27.2632L19.9245 24.7917L19.9231 24.7875L19.7855 24.3493L18.9463 21.681C18.9463 21.681 19.7153 21.9528 20.6982 22.4159C21.023 22.5689 21.3718 22.7434 21.7239 22.936C21.8207 22.9888 21.9183 23.0436 22.0159 23.0993C22.0159 23.0993 22.229 23.2189 22.5631 23.4345C24.2713 24.541 29.1265 28.1746 24.5279 31.2204Z" fill="white"/>
<g opacity="0.2">
<path d="M21.7234 22.9358C21.2851 23.4878 20.6168 23.971 19.7851 24.3491L18.9458 21.6808C18.9458 21.6808 19.7148 21.9526 20.6978 22.4157C21.0225 22.5687 21.3707 22.7432 21.7234 22.9358Z" fill="#371A45"/>
</g>
<path d="M13.254 21.2754L10.7042 24.1803C9.94108 23.7839 9.34167 23.2924 8.96875 22.7397C10.2697 21.9146 11.7362 21.4134 13.254 21.2754Z" fill="#D8D8D8"/>
<path d="M20.5791 23.9251C19.3183 24.715 17.4739 25.2128 15.4186 25.2128C13.2095 25.2128 11.2438 24.6378 9.98486 23.7438C10.0217 23.6624 10.0583 23.5817 10.0965 23.5003C10.0965 23.5003 9.3935 19.2954 12.9109 17.8659C13.7362 17.6909 14.5764 17.6038 15.4186 17.6058C16.3333 17.6058 17.2061 17.7047 18.0045 17.884C21.0294 19.3281 20.3861 23.5003 20.3861 23.5003C20.4522 23.6422 20.517 23.784 20.5791 23.9251Z" fill="#D8D8D8"/>
<g opacity="0.2">
<path d="M20.4683 25.252L20.7 27.2626C21.749 27.7366 22.0155 28.1943 22.0155 28.1943C22.0106 28.1995 22.0055 28.2047 22.0011 28.2092C22.2825 27.9677 22.66 27.6916 23.0563 27.5363C23.0563 27.5363 22.3091 27.1326 22.0819 26.8202C21.3514 25.8211 21.3362 25.4606 21.0566 25.0492C20.9662 24.9176 20.3657 25.031 20.4683 25.252Z" fill="#371A45"/>
</g>
<g opacity="0.2">
<path d="M23.0211 33.8178C25.1611 33.3638 24.5428 31.2705 24.5285 31.2208C24.5285 31.2208 24.1568 33.2929 22.2222 32.7244C20.9852 32.3603 21.0898 30.5461 21.3259 29.286C21.3051 29.2361 21.2879 29.1847 21.2743 29.1323H21.2736C19.5653 31.7749 21.0832 34.229 23.0211 33.8178Z" fill="#371A45"/>
</g>
<path d="M22.604 34.1409C21.7763 34.1409 21.0214 33.6736 20.6018 32.8688C20.0399 31.7922 20.0366 30.0128 21.6532 28.1885C21.5123 28.0522 21.2455 27.8379 20.7836 27.6091C20.7515 27.5937 20.7226 27.5718 20.6987 27.5447C20.6747 27.5176 20.6562 27.4858 20.6441 27.4511C20.6321 27.4165 20.6268 27.3797 20.6285 27.343C20.6302 27.3062 20.639 27.2701 20.6542 27.2369C20.6694 27.2037 20.6908 27.1739 20.7172 27.1493C20.7436 27.1248 20.7744 27.1059 20.8078 27.0938C20.8412 27.0817 20.8766 27.0767 20.9119 27.0789C20.9473 27.0812 20.9818 27.0907 21.0135 27.107C21.9443 27.5681 22.2168 28.0033 22.2448 28.0514L22.3525 28.2365L22.2066 28.3906C20.6228 30.0653 20.5818 31.6653 21.0713 32.604C21.4608 33.3517 22.1875 33.7119 22.9674 33.5461C23.5376 33.4251 23.9369 33.1679 24.1543 32.7817C24.5207 32.1303 24.2759 31.3143 24.2734 31.3063L24.2105 31.102L24.3844 30.9867C25.6144 30.1719 26.2204 29.2592 26.1859 28.2738C26.0967 25.7309 21.9311 23.3684 21.889 23.3448C20.4131 22.4974 18.8752 21.9509 18.8598 21.9455C18.7933 21.9213 18.7386 21.8708 18.7077 21.8049C18.6768 21.739 18.6722 21.6631 18.6948 21.5937C18.7174 21.5242 18.7655 21.4669 18.8285 21.4341C18.8915 21.4014 18.9644 21.3958 19.0314 21.4187C19.0959 21.4414 20.6283 21.9856 22.145 22.8564C22.325 22.9572 26.619 25.3923 26.7201 28.2528C26.7606 29.403 26.1258 30.443 24.8326 31.3463C24.9009 31.6967 24.9763 32.4229 24.6156 33.0628C24.3183 33.5912 23.7996 33.9372 23.0742 34.0911C22.9194 34.124 22.7619 34.1407 22.604 34.1409Z" fill="#371A45"/>
<path d="M24.5683 31.4422C24.1802 31.5926 23.7685 31.6938 23.3521 31.6864C23.5004 31.5787 23.7079 31.4363 23.8585 31.3309C24.022 31.218 24.1906 31.1023 24.3567 30.9988L24.5683 31.4422Z" fill="#371A45"/>
<path d="M25.9733 30.0713C25.947 30.0713 25.9209 30.0658 25.8966 30.0552C25.8723 30.0447 25.8502 30.0292 25.8316 30.0098C25.8131 29.9903 25.7984 29.9673 25.7884 29.9419C25.7784 29.9165 25.7733 29.8894 25.7734 29.862C25.7746 29.372 25.3475 28.8462 24.6854 28.5229C23.8894 28.1341 22.6808 28.0302 21.6759 28.9036C21.6557 28.9219 21.6323 28.9357 21.607 28.9444C21.5817 28.9531 21.5549 28.9564 21.5283 28.9542C21.5017 28.952 21.4758 28.9443 21.4522 28.9316C21.4285 28.9188 21.4074 28.9013 21.3903 28.88C21.3733 28.8587 21.3604 28.8341 21.3526 28.8075C21.3448 28.781 21.3421 28.7531 21.3447 28.7255C21.3474 28.6979 21.3553 28.6711 21.3681 28.6467C21.3808 28.6223 21.3981 28.6008 21.4189 28.5835C22.5686 27.5845 23.9482 27.7023 24.8557 28.1454C25.6583 28.5373 26.1758 29.2115 26.1742 29.863C26.174 29.9183 26.1527 29.9712 26.115 30.0103C26.0774 30.0493 26.0265 30.0712 25.9733 30.0713Z" fill="#371A45"/>
<path d="M21.8066 27.9991C22.2051 27.7897 22.6205 27.603 23.0569 27.511C22.6945 27.7503 22.3843 28.0629 22.0992 28.3895L21.8069 27.9991H21.8066Z" fill="#371A45"/>
<path d="M15.0381 36.4169C14.9967 37.1115 14.97 37.8053 14.9526 38.4818C14.9485 38.6528 14.9445 38.8232 14.9412 38.9914C14.8857 41.9588 14.9934 44.4904 14.7803 45.1299C14.4888 46.0005 13.7325 46.0761 13.7325 46.0761H11.1457C11.1457 46.0761 9.35785 46.1694 8.88246 45.7146C8.40707 45.2597 8.45407 44.6139 8.80084 44.1668C9.09759 43.7831 9.62946 43.6217 9.62946 43.6217C9.62946 43.6217 9.27019 40.8532 8.90244 37.1676C8.88807 37.018 8.8724 36.8673 8.85775 36.7149C8.74551 35.5761 8.63457 34.3609 8.53368 33.119L15.0381 36.4169Z" fill="white"/>
<g opacity="0.2">
<path d="M15.0383 36.417C14.9969 37.1116 14.9702 37.8054 14.9528 38.4819C14.9488 38.6529 14.9447 38.8232 14.9414 38.9915C12.0068 39.1709 10.0355 38.0943 8.90294 37.1672C8.88857 37.0177 8.8729 36.8669 8.85824 36.7146C8.74601 35.5757 8.63506 34.3605 8.53418 33.1187L15.0383 36.417Z" fill="#371A45"/>
</g>
<g opacity="0.2">
<path d="M8.8828 45.7147C9.35703 46.1685 11.1455 46.0759 11.1455 46.0759H13.7322C13.7322 46.0759 14.489 45.9998 14.7803 45.1296C14.8168 45.0206 14.8441 44.8564 14.8642 44.6436C14.5328 44.9108 14.197 44.9444 14.197 44.9444H11.2722C11.2722 44.9444 9.25141 45.0491 8.71423 44.5353C8.68606 44.5087 8.65924 44.4805 8.63389 44.451C8.45656 44.8613 8.50183 45.3501 8.8828 45.7147Z" fill="#371A45"/>
</g>
<path d="M10.7301 46.3646C10.1204 46.3646 9.10307 46.3033 8.70213 45.9196C8.16911 45.4095 8.12327 44.5992 8.59305 43.9928C8.81149 43.7107 9.12765 43.5337 9.33732 43.4395C9.20798 42.4133 8.65844 37.945 8.26755 33.1428C8.26159 33.0693 8.28393 32.9964 8.32966 32.94C8.3754 32.8836 8.44078 32.8485 8.51142 32.8423C8.58207 32.8361 8.65219 32.8593 8.70636 32.9069C8.76053 32.9545 8.79431 33.0225 8.80028 33.096C9.24247 38.5295 9.88858 43.5349 9.89505 43.5848C9.90362 43.6508 9.88915 43.7178 9.85425 43.7736C9.81936 43.8294 9.76637 43.8704 9.70492 43.889C9.70104 43.8902 9.24851 44.0327 9.00923 44.3416C8.76205 44.6607 8.68316 45.1456 9.06384 45.51C9.33416 45.7686 10.436 45.8341 11.1322 45.7986C11.1365 45.7986 11.141 45.7986 11.1455 45.7986H13.7158C13.793 45.7867 14.3128 45.6824 14.5279 45.0389C14.6548 44.6594 14.655 43.3302 14.6553 41.7911C14.6553 40.247 14.6553 38.3252 14.7718 36.3997C14.7762 36.3261 14.8086 36.2573 14.8618 36.2086C14.915 36.1598 14.9846 36.1349 15.0553 36.1396C15.1261 36.1442 15.1922 36.1779 15.2391 36.2332C15.286 36.2885 15.3098 36.361 15.3054 36.4346C15.1904 38.3426 15.1904 40.2548 15.1904 41.7912C15.1904 43.575 15.1904 44.7534 15.0335 45.2214C14.6899 46.249 13.7963 46.3498 13.7585 46.3537C13.75 46.3544 13.7414 46.3549 13.7329 46.3549H11.1519C11.0726 46.3586 10.9213 46.3646 10.7301 46.3646Z" fill="#371A45"/>
<path d="M12.4345 41.0343C11.3786 41.0343 10.1588 40.8961 9.1112 40.4145C9.04861 40.3833 9.00014 40.328 8.97606 40.2602C8.95198 40.1925 8.95419 40.1177 8.9822 40.0516C9.01022 39.9855 9.06185 39.9334 9.12616 39.9062C9.19047 39.8791 9.26242 39.879 9.32676 39.9061C11.58 40.9416 14.8373 40.2467 14.87 40.2394C14.9044 40.2319 14.9398 40.2315 14.9743 40.2382C15.0088 40.245 15.0417 40.2587 15.0711 40.2787C15.1005 40.2987 15.1259 40.3245 15.1457 40.3546C15.1655 40.3848 15.1794 40.4187 15.1866 40.4544C15.1938 40.4902 15.1942 40.5271 15.1877 40.563C15.1813 40.5989 15.1681 40.6331 15.1489 40.6637C15.1297 40.6943 15.1049 40.7206 15.0759 40.7412C15.0469 40.7619 15.0143 40.7763 14.98 40.7838C14.9011 40.8001 13.8062 41.0343 12.4345 41.0343Z" fill="#371A45"/>
<path d="M9.56721 43.3521C10.2698 43.2308 10.96 43.2908 11.6487 43.4095C11.6821 43.4157 11.7121 43.4348 11.7325 43.4631C11.7529 43.4914 11.7622 43.5266 11.7585 43.5618C11.7549 43.5969 11.7385 43.6293 11.7128 43.6523C11.6871 43.6754 11.6539 43.6874 11.6199 43.686C10.977 43.6634 10.3011 43.6975 9.69267 43.8928C9.32765 43.9975 9.19616 43.4333 9.56736 43.3521H9.56721Z" fill="#371A45"/>
<path d="M15.4438 36.417C15.4854 37.1115 15.5121 37.8054 15.5301 38.4818C15.534 38.6529 15.538 38.8232 15.5414 38.9914C15.5969 41.9589 15.4893 44.4904 15.7024 45.13C15.9937 46.0005 16.7502 46.0762 16.7502 46.0762H19.3369C19.3369 46.0762 21.1244 46.1695 21.5995 45.7148C22.0746 45.2601 22.0279 44.6141 21.6809 44.167C21.3843 43.7833 20.8525 43.622 20.8525 43.622C20.8525 43.622 21.2117 40.8534 21.5795 37.1678C21.5939 37.0182 21.6095 36.8675 21.6242 36.7151C21.7364 35.5763 21.8474 34.3611 21.9482 33.1192L15.4438 36.417Z" fill="white"/>
<g opacity="0.2">
<path d="M15.4438 36.417C15.4854 37.1116 15.5121 37.8054 15.5301 38.4819C15.534 38.6529 15.538 38.8232 15.5414 38.9915C18.4761 39.1709 20.4472 38.0943 21.5799 37.1672C21.5943 37.0177 21.6099 36.8669 21.6246 36.7146C21.7368 35.5757 21.8478 34.3605 21.9487 33.1187L15.4438 36.417Z" fill="#371A45"/>
</g>
<g opacity="0.2">
<path d="M21.5995 45.7147C21.1252 46.1685 19.3369 46.0759 19.3369 46.0759H16.7502C16.7502 46.0759 15.9934 45.9998 15.7021 45.1296C15.6654 45.0206 15.6383 44.8564 15.6182 44.6436C15.9496 44.9108 16.2853 44.9444 16.2853 44.9444H19.21C19.21 44.9444 21.231 45.0491 21.768 44.5353C21.7962 44.5087 21.823 44.4805 21.8484 44.451C22.0257 44.8613 21.9804 45.3501 21.5995 45.7147Z" fill="#371A45"/>
</g>
<path d="M19.7524 46.3647C19.5612 46.3647 19.41 46.3587 19.3305 46.3547H16.7502C16.7418 46.3547 16.7331 46.3547 16.7246 46.3535C16.6869 46.3496 15.7931 46.2488 15.4497 45.2213C15.2932 44.7532 15.293 43.5748 15.2927 41.791C15.2927 40.2546 15.2927 38.3424 15.1778 36.4344C15.1733 36.3608 15.1972 36.2883 15.2441 36.233C15.291 36.1777 15.3571 36.144 15.4278 36.1394C15.4986 36.1348 15.5682 36.1596 15.6214 36.2084C15.6746 36.2572 15.7069 36.3259 15.7114 36.3996C15.8273 38.3251 15.8276 40.2468 15.8279 41.7909C15.8279 43.33 15.8279 44.6592 15.9551 45.0387C16.1692 45.6788 16.6844 45.7853 16.7679 45.7984H19.3377C19.3422 45.7984 19.3466 45.7984 19.3509 45.7984C20.047 45.8339 21.149 45.7685 21.4193 45.5099C21.8 45.1454 21.7211 44.6605 21.4739 44.3414C21.2347 44.0325 20.7821 43.89 20.7775 43.8886C20.7163 43.8697 20.6636 43.8287 20.6289 43.773C20.5942 43.7173 20.5797 43.6505 20.5881 43.5846C20.5946 43.5347 21.2407 38.5293 21.6829 33.0958C21.6888 33.0223 21.7226 32.9543 21.7768 32.9067C21.831 32.8591 21.9011 32.8359 21.9717 32.8421C22.0424 32.8483 22.1078 32.8834 22.1535 32.9398C22.1992 32.9962 22.2216 33.0691 22.2156 33.1426C21.8247 37.9448 21.275 42.4135 21.1458 43.4393C21.3555 43.5334 21.6717 43.7104 21.8901 43.9926C22.3599 44.5991 22.3141 45.4094 21.781 45.9194C21.3795 46.3034 20.3622 46.3647 19.7524 46.3647Z" fill="#371A45"/>
<path d="M18.0482 41.0344C16.6762 41.0344 15.5816 40.801 15.5024 40.7836C15.468 40.7761 15.4354 40.7617 15.4065 40.741C15.3775 40.7204 15.3527 40.6941 15.3335 40.6635C15.3143 40.6329 15.3011 40.5987 15.2946 40.5628C15.2882 40.5269 15.2885 40.49 15.2958 40.4542C15.303 40.4185 15.3169 40.3846 15.3367 40.3544C15.3565 40.3243 15.3818 40.2985 15.4112 40.2785C15.4406 40.2585 15.4735 40.2448 15.508 40.238C15.5425 40.2313 15.578 40.2317 15.6123 40.2392C15.645 40.2464 18.9057 40.9401 21.1555 39.9059C21.1878 39.8892 21.2231 39.8795 21.2592 39.8773C21.2952 39.8752 21.3313 39.8807 21.3653 39.8935C21.3993 39.9063 21.4304 39.9261 21.4568 39.9518C21.4832 39.9774 21.5043 40.0084 21.5189 40.0428C21.5335 40.0771 21.5412 40.1142 21.5416 40.1518C21.542 40.1894 21.5351 40.2267 21.5213 40.2614C21.5075 40.2961 21.487 40.3276 21.4612 40.3539C21.4354 40.3802 21.4047 40.4007 21.371 40.4143C20.3238 40.8953 19.1039 41.0344 18.0482 41.0344Z" fill="#371A45"/>
<path d="M20.7896 43.8926C20.181 43.6973 19.5053 43.6632 18.8623 43.6858C18.6971 43.6919 18.6709 43.4398 18.8336 43.4093C19.5222 43.2906 20.2123 43.2298 20.9151 43.3519C21.2854 43.4326 21.1558 43.9963 20.7897 43.8926H20.7896Z" fill="#371A45"/>
<path d="M19.7524 46.3647C19.5612 46.3647 19.41 46.3587 19.3305 46.3547H16.7502C16.7418 46.3547 16.7331 46.3547 16.7246 46.3535C16.6869 46.3496 15.7931 46.2488 15.4497 45.2213C15.2932 44.7532 15.293 43.5748 15.2927 41.791C15.2927 40.2546 15.2927 38.3424 15.1778 36.4344C15.1733 36.3608 15.1972 36.2883 15.2441 36.233C15.291 36.1777 15.3571 36.144 15.4278 36.1394C15.4986 36.1348 15.5682 36.1596 15.6214 36.2084C15.6746 36.2572 15.7069 36.3259 15.7114 36.3996C15.8273 38.3251 15.8276 40.2468 15.8279 41.7909C15.8279 43.33 15.8279 44.6592 15.9552 45.0387C16.1692 45.6788 16.6846 45.7853 16.768 45.7984H19.3377C19.3422 45.7984 19.3466 45.7984 19.3509 45.7984C20.0472 45.834 21.149 45.7685 21.4193 45.5099C21.8 45.1454 21.7211 44.6605 21.4739 44.3414C21.2347 44.0325 20.7821 43.89 20.7775 43.8886C20.7163 43.8697 20.6636 43.8287 20.6289 43.773C20.5942 43.7173 20.5797 43.6505 20.5881 43.5846C20.5946 43.5347 21.2407 38.5293 21.6829 33.0958C21.6888 33.0223 21.7226 32.9543 21.7768 32.9067C21.831 32.8591 21.9011 32.8359 21.9717 32.8421C22.0424 32.8483 22.1078 32.8834 22.1535 32.9398C22.1992 32.9962 22.2216 33.0691 22.2156 33.1426C21.8247 37.9448 21.275 42.4135 21.1458 43.4393C21.3555 43.5334 21.6717 43.7104 21.8901 43.9926C22.3599 44.5991 22.3141 45.4094 21.7812 45.9194C21.3795 46.3034 20.3622 46.3647 19.7524 46.3647Z" fill="#371A45"/>
<path d="M20.3859 23.5001C22.0673 27.1199 22.8237 30.4326 22.3106 33.0078C22.1275 33.9265 21.822 34.6826 21.4309 35.3042C20.5866 36.6435 19.3391 37.3565 18.0394 37.7197C17.0895 37.9851 16.1113 38.0636 15.2415 38.0636C14.572 38.0636 13.8381 38.017 13.1021 37.8743C12.8958 37.8342 12.6893 37.7867 12.4842 37.7306C11.3255 37.4134 10.2057 36.8213 9.37233 35.759C8.82624 35.0624 8.40259 34.1636 8.17222 33.0077C7.65904 30.4325 8.41538 27.1198 10.0969 23.4999" fill="white"/>
<path d="M22.4685 31.2205C22.4745 31.8485 22.4229 32.4456 22.3104 33.008C22.2851 33.1368 22.2571 33.2622 22.2263 33.3842C22.0405 34.1358 21.7679 34.7699 21.4305 35.3045C20.5865 36.6435 19.3389 37.3562 18.0389 37.7199C17.0887 37.9854 16.1105 38.0638 15.2412 38.0638C14.5717 38.0638 13.8373 38.0171 13.1017 37.8746C12.8952 37.8342 12.6887 37.787 12.4837 37.7308C11.3244 37.4136 10.2051 36.8213 9.3713 35.7589C8.88269 35.1352 8.49194 34.349 8.24936 33.3616C8.22062 33.2462 8.19519 33.1287 8.17119 33.0077C8.05895 32.4453 8.0075 31.8481 8.01311 31.2202C8.03193 28.9717 8.78094 26.3291 10.096 23.5C10.096 23.5 9.1188 17.65 15.2408 17.4046C21.3628 17.1593 20.3856 23.5 20.3856 23.5C21.7012 26.3294 22.4496 28.972 22.4685 31.2205Z" fill="white"/>
<g opacity="0.2">
<path d="M20.5791 23.9251C19.3183 24.715 17.4739 25.2128 15.4186 25.2128C13.2095 25.2128 11.2438 24.6378 9.98486 23.7438C10.0217 23.6624 10.0583 23.5817 10.0965 23.5003C10.0965 23.5003 9.3935 19.2954 12.9109 17.8659C13.7362 17.6909 14.5764 17.6038 15.4186 17.6058C16.3333 17.6058 17.2061 17.7047 18.0045 17.884C21.0294 19.3281 20.3861 23.5003 20.3861 23.5003C20.4522 23.6422 20.517 23.784 20.5791 23.9251Z" fill="#371A45"/>
</g>
<g opacity="0.2">
<path d="M22.3109 33.0079C22.1278 33.9265 21.8232 34.6827 21.431 35.3044C20.587 36.6434 19.3394 37.3561 18.0395 37.7198C17.0893 37.9853 16.111 38.0637 15.2417 38.0637C14.5722 38.0637 13.8378 38.017 13.1022 37.8745C12.8957 37.8342 12.6892 37.7869 12.4843 37.7307C11.325 37.4135 10.2056 36.8212 9.37181 35.7588C8.82572 35.0622 8.40221 34.1632 8.1717 33.0075C8.03001 32.2969 7.98488 31.5301 8.03001 30.7159C8.05048 31.0984 8.09784 31.4788 8.1717 31.8541C8.40164 33.0103 8.82587 33.9085 9.37181 34.6055C10.2053 35.6679 11.325 36.2603 12.4843 36.5774C12.6893 36.6336 12.8958 36.681 13.1022 36.7212C13.8378 36.8637 14.5722 36.9104 15.2417 36.9104C16.111 36.9104 17.0893 36.8319 18.0395 36.5664C19.3397 36.2035 20.5873 35.4898 21.431 34.1511C21.8232 33.5296 22.1278 32.7732 22.3109 31.8547C22.3848 31.4794 22.4322 31.099 22.4526 30.7165C22.4974 31.5306 22.4526 32.2973 22.3109 33.0079Z" fill="#371A45"/>
</g>
<path d="M9.26794 35.8473C8.75389 35.4119 8.42609 34.788 8.19645 34.1521C7.49314 32.2474 7.63886 30.1214 8.13896 28.1858C8.15658 28.1151 8.20022 28.0544 8.26047 28.0169C8.32072 27.9794 8.39273 27.9681 8.46095 27.9854C8.52917 28.0027 8.58811 28.0472 8.62504 28.1093C8.66197 28.1714 8.67393 28.2462 8.65833 28.3174C8.59538 28.6326 8.53502 28.9477 8.48401 29.2638C8.29345 30.5155 8.2226 31.8045 8.47539 33.0478C8.64453 33.9899 9.0541 34.8263 9.47545 35.6721C9.54357 35.805 9.38089 35.9453 9.26837 35.8479L9.26794 35.8473Z" fill="#371A45"/>
<path d="M18.0737 37.8542C16.5791 38.446 14.6822 38.4741 13.1332 38.0913C12.9022 38.0245 12.6733 37.9481 12.4495 37.8654C12.433 37.8593 12.4177 37.8498 12.4046 37.8376C12.3916 37.8254 12.3809 37.8106 12.3734 37.7941C12.3658 37.7776 12.3614 37.7596 12.3605 37.7414C12.3596 37.7231 12.3622 37.7048 12.3681 37.6876C12.3788 37.6566 12.3996 37.6305 12.4269 37.6139C12.4542 37.5972 12.4863 37.591 12.5175 37.5964C12.7499 37.6172 12.9759 37.6562 13.2034 37.6827C14.3426 37.8056 15.4926 37.815 16.6349 37.7399C17.0919 37.7069 17.5467 37.6537 18.005 37.5855C18.1597 37.5624 18.2206 37.7938 18.0737 37.8546V37.8542Z" fill="#371A45"/>
<path d="M21.1801 24.9973C22.5267 27.8653 23.4823 31.6689 22.0448 34.679C21.828 35.1108 21.5544 35.5156 21.2142 35.8473C21.1008 35.9554 20.9256 35.8109 21.0071 35.6714C23.0078 32.4289 22.0445 28.5001 20.9332 25.1041C20.8827 24.9448 21.1031 24.8417 21.1801 24.9973Z" fill="#371A45"/>
<g opacity="0.2">
<path d="M19.4953 31.2206V29.5572C19.4946 29.3187 19.4032 29.0901 19.2411 28.9215C19.079 28.7528 18.8594 28.6577 18.6301 28.657H11.7988C11.5696 28.6577 11.3499 28.7528 11.1878 28.9215C11.0257 29.0901 10.9344 29.3187 10.9337 29.5572V31.2206H8.01367L8.24964 33.362C9.08157 33.2451 10.0105 33.1199 10.9337 33.0066V34.0918C10.9344 34.3304 11.0257 34.5589 11.1878 34.7276C11.3499 34.8962 11.5696 34.9913 11.7988 34.992H18.6301C18.8594 34.9913 19.079 34.8962 19.2411 34.7276C19.4032 34.5589 19.4946 34.3304 19.4953 34.0918V32.9919C20.4437 33.1162 21.3957 33.256 22.2269 33.3843C22.2576 33.262 22.2857 33.1365 22.3111 33.008C22.4233 32.4457 22.4749 31.8484 22.4692 31.2206H19.4953Z" fill="#371A45"/>
</g>
<path d="M19.0457 30.4786C19.0457 30.4786 21.3323 30.2972 22.2949 31.0182C23.3177 31.7846 22.2871 32.6711 22.2871 32.6711C22.2871 32.6711 20.4455 32.2525 18.8989 32.3123L19.0457 30.4786Z" fill="white"/>
<g opacity="0.2">
<path d="M22.2874 32.6715C22.2874 32.6715 20.4451 32.2529 18.8989 32.3127L18.9544 31.616C20.0293 31.5819 21.234 31.7724 21.859 31.8895C22.1913 31.9517 22.5281 31.7777 22.6662 31.4571C22.6677 31.4539 22.669 31.4508 22.6703 31.4478C22.9729 32.0812 22.2874 32.6715 22.2874 32.6715Z" fill="#371A45"/>
</g>
<path d="M11.6272 30.4786C11.6272 30.4786 9.34052 30.2972 8.37796 31.0182C7.35504 31.7846 8.38557 32.6711 8.38557 32.6711C8.38557 32.6711 10.2273 32.2525 11.7739 32.3123L11.6272 30.4786Z" fill="white"/>
<path d="M22.3573 32.9717L22.2303 32.9429C22.2122 32.9388 20.402 32.533 18.9087 32.5904L18.6069 32.6021L18.7984 30.2193L19.0254 30.2012C19.1228 30.1936 21.4213 30.0209 22.4511 30.7926C22.8131 31.0639 23.0027 31.3856 23.0143 31.7496C23.0347 32.382 22.4812 32.8655 22.4576 32.886L22.3573 32.9717ZM19.214 32.0285C20.4596 32.0285 21.7769 32.2801 22.2041 32.3693C22.3254 32.2347 22.4882 31.9984 22.4799 31.7662C22.4734 31.5844 22.3586 31.4088 22.1387 31.244C21.4902 30.7581 20.0294 30.7125 19.2933 30.7427L19.1904 32.0286L19.214 32.0285Z" fill="#371944"/>
<path d="M8.31509 32.9718L8.2145 32.8857C8.19093 32.8653 7.63751 32.3818 7.65777 31.7492C7.66941 31.3856 7.85896 31.0638 8.22096 30.7922C9.25078 30.0207 11.5493 30.1931 11.6467 30.2009L11.8739 30.2189L12.0644 32.6017L11.7627 32.59C10.269 32.5329 8.45923 32.9385 8.44113 32.9425L8.31509 32.9718ZM11.0148 30.7357C10.2329 30.7357 9.08652 30.8299 8.53367 31.2441C8.3138 31.4086 8.19898 31.5845 8.19251 31.7663C8.18417 31.9984 8.34685 32.2337 8.46843 32.3693C8.89568 32.2796 10.2131 32.0286 11.4584 32.0286H11.4826L11.3797 30.7426C11.272 30.7384 11.1487 30.7357 11.0148 30.7357Z" fill="#371944"/>
<path d="M19.1933 29.7698V33.1578C19.1933 33.7866 18.7174 34.301 18.1361 34.301H12.3623C11.7804 34.301 11.3052 33.7866 11.3052 33.1578V29.7698C11.3052 29.1417 11.7804 28.6273 12.3623 28.6273H18.1361C18.6004 28.6273 18.9983 28.9563 19.1387 29.4083C19.1749 29.5251 19.1933 29.6471 19.1933 29.7698Z" fill="white"/>
<g opacity="0.2">
<path d="M19.1933 29.7697V33.1577C19.1933 33.7865 18.7174 34.3009 18.1361 34.3009H12.3623C11.7804 34.3009 11.3052 33.7865 11.3052 33.1577V32.0176C12.3014 32.6133 14.2748 33.5079 16.2555 32.7697C17.2231 32.4089 18.3324 31.172 18.3324 31.172C18.3324 31.172 18.3755 32.4698 18.5534 32.4493C19.0488 32.3923 19.0452 29.7665 19.1387 29.4084C19.1748 29.5252 19.1933 29.647 19.1933 29.7697Z" fill="#371A45"/>
</g>
<path d="M18.1755 34.5786H12.3226C11.9819 34.5782 11.6553 34.4372 11.4144 34.1866C11.1735 33.9359 11.038 33.596 11.0376 33.2415V29.6863C11.038 29.3318 11.1735 28.9919 11.4144 28.7412C11.6553 28.4906 11.9819 28.3496 12.3226 28.3492H18.1755C18.5162 28.3496 18.8428 28.4906 19.0837 28.7412C19.3246 28.9919 19.4601 29.3318 19.4605 29.6863V33.2415C19.4601 33.596 19.3246 33.9359 19.0837 34.1866C18.8428 34.4372 18.5162 34.5782 18.1755 34.5786ZM12.3226 28.9054C12.1237 28.9057 11.9329 28.988 11.7922 29.1344C11.6515 29.2808 11.5723 29.4793 11.5721 29.6863V33.2415C11.5723 33.4486 11.6515 33.647 11.7922 33.7934C11.9329 33.9398 12.1237 34.0221 12.3226 34.0224H18.1755C18.3744 34.0221 18.5652 33.9398 18.7059 33.7934C18.8466 33.647 18.9258 33.4486 18.926 33.2415V29.6863C18.9258 29.4793 18.8466 29.2808 18.7059 29.1344C18.5652 28.988 18.3744 28.9057 18.1755 28.9054H12.3226Z" fill="#371944"/>
<path d="M17.2946 32.4491C17.7982 32.4491 18.2065 32.008 18.2065 31.4638C18.2065 30.9197 17.7982 30.4786 17.2946 30.4786C16.7911 30.4786 16.3828 30.9197 16.3828 31.4638C16.3828 32.008 16.7911 32.4491 17.2946 32.4491Z" fill="#22A7F0"/>
<path d="M18.2065 31.4643C18.2067 31.5299 18.2006 31.5954 18.1885 31.6599C18.1043 31.2087 17.7358 30.8691 17.2944 30.8691C16.8529 30.8691 16.4844 31.2087 16.4008 31.6599C16.3887 31.5954 16.3827 31.5299 16.3828 31.4643C16.3828 30.9201 16.7908 30.4786 17.2944 30.4786C17.7979 30.4786 18.2065 30.92 18.2065 31.4643Z" fill="white"/>
<path d="M18.2062 31.4644C18.2062 32.009 17.7978 32.4497 17.2945 32.4497C16.7912 32.4497 16.3828 32.009 16.3828 31.4644C16.3828 31.3753 16.3939 31.2866 16.4159 31.2005C16.5231 31.616 16.8757 31.9212 17.2945 31.9212C17.7133 31.9212 18.0659 31.616 18.1731 31.2005C18.1951 31.2866 18.2062 31.3753 18.2062 31.4644Z" fill="#1C7AEA"/>
<path d="M17.2949 32.6578C16.6816 32.6578 16.1826 32.1223 16.1826 31.464C16.1826 30.8056 16.6816 30.2701 17.2949 30.2701C17.9083 30.2701 18.4072 30.8057 18.4072 31.464C18.4072 32.1222 17.9077 32.6578 17.2949 32.6578ZM17.2949 30.6873C16.9027 30.6873 16.5836 31.0357 16.5836 31.464C16.5836 31.8922 16.9027 32.2406 17.2949 32.2406C17.6871 32.2406 18.0063 31.8922 18.0063 31.464C18.0063 31.0357 17.6871 30.6869 17.2949 30.6869V30.6873Z" fill="#371944"/>
<path d="M14.4088 34.5786C14.3379 34.5786 14.2699 34.5493 14.2198 34.4972C14.1697 34.445 14.1415 34.3743 14.1415 34.3005V32.5659C14.1415 32.224 13.9915 31.8978 13.7401 31.6931L13.5936 31.5735C13.2136 31.2644 12.9868 30.7743 12.9868 30.2624V28.6273C12.9868 28.5535 13.015 28.4828 13.0651 28.4306C13.1152 28.3785 13.1832 28.3492 13.2541 28.3492C13.325 28.3492 13.393 28.3785 13.4431 28.4306C13.4933 28.4828 13.5214 28.5535 13.5214 28.6273V30.2635C13.5214 30.6056 13.6714 30.9319 13.9228 31.1363L14.0694 31.2559C14.4493 31.5651 14.6761 32.0551 14.6761 32.5668V34.3014C14.6759 34.375 14.6476 34.4455 14.5975 34.4975C14.5474 34.5494 14.4796 34.5786 14.4088 34.5786Z" fill="#371944"/>
<path d="M15.3049 28.3428C15.4445 29.198 15.337 29.7251 15.1446 30.0872C15.0182 30.3265 14.8538 30.4947 14.7002 30.6372C14.1021 31.1919 12.2211 31.34 12.2211 31.34C12.2211 31.34 8.58556 32.9597 6.33897 31.8248C4.84167 31.0675 4.47076 28.879 5.12765 27.1678C5.17838 27.0363 5.23787 26.8986 5.30671 26.7542C5.30682 26.7535 5.30682 26.7528 5.30671 26.7521C6.26769 24.7358 8.97042 21.6739 13.2538 21.2754L9.64412 25.3875L9.07992 26.9934C10.5774 26.9774 11.6264 26.9365 11.9278 26.7932C12.2292 26.65 12.1396 25.5591 12.4316 25.1412C12.5953 24.9063 13.2288 24.9181 13.43 25.3734C13.6665 25.9117 13.331 26.5381 13.6464 26.7807C13.8809 26.9614 14.7242 26.6654 15.2173 27.1338C15.4954 27.3979 15.4214 28.0022 15.3049 28.3428Z" fill="white"/>
<g opacity="0.2">
<path d="M13.254 21.2754L10.7042 24.1803C9.94108 23.7839 9.34167 23.2924 8.96875 22.7397C10.2697 21.9146 11.7362 21.4134 13.254 21.2754Z" fill="#371A45"/>
</g>
<g opacity="0.2">
<path d="M15.1446 30.0872C15.0182 30.3265 14.8538 30.4947 14.7002 30.6372C14.1021 31.192 12.2211 31.34 12.2211 31.34C12.2211 31.34 8.58556 32.9597 6.33897 31.8248C4.84167 31.0676 4.47076 28.879 5.12765 27.1678C5.17838 27.0364 5.23787 26.8987 5.30671 26.7542C5.28127 26.8571 4.34386 30.7178 6.9881 31.4644C9.36231 32.1352 11.2486 30.5634 12.0116 30.4792C12.6435 30.4092 14.054 31.0718 15.1446 30.0872Z" fill="#371A45"/>
</g>
<path d="M13.2781 21.5527C10.6626 21.7823 8.19077 23.1857 6.54042 25.3031C6.00209 25.9981 5.51736 26.7636 5.26012 27.618C4.91364 28.8365 5.0401 30.3415 5.96745 31.2312C6.92211 32.0859 8.41725 32.0215 9.59811 31.8283C10.4606 31.6746 11.3048 31.425 12.1162 31.0838C12.1433 31.0722 12.172 31.0649 12.2012 31.0621C12.6052 31.0263 13.0066 30.9647 13.4032 30.8776C13.7634 30.7936 14.1765 30.6832 14.4687 30.4739C15.1284 29.9643 15.1751 29.1934 15.0416 28.3891C15.034 28.3422 15.0381 28.294 15.0534 28.2491C15.1316 28.0081 15.1774 27.7099 15.1096 27.4686C15.0869 27.405 15.0712 27.3674 15.022 27.3258C14.9143 27.2277 14.7633 27.1725 14.5871 27.1464C14.1098 27.0655 13.3975 27.3176 13.2542 26.6057C13.1595 26.1396 13.4841 25.3303 12.8278 25.2687C12.7529 25.265 12.6795 25.282 12.6467 25.3065C12.6257 25.3385 12.6082 25.3729 12.5946 25.409C12.4187 25.8576 12.494 26.4421 12.2262 26.8827C12.1044 27.0801 11.8088 27.1251 11.6186 27.1553C11.1792 27.2172 10.762 27.2301 10.3396 27.2467C9.90492 27.2575 9.47193 27.2733 9.03937 27.2681C8.86692 27.2591 8.75396 27.0587 8.82869 26.8975L9.51849 25.3402C9.5892 25.1869 9.81123 25.2724 9.76955 25.4359L9.33052 27.0886L9.07673 26.7148C9.49349 26.7102 9.90895 26.7039 10.3227 26.6906C10.8241 26.6607 11.3476 26.677 11.8132 26.5411C11.8188 26.5388 11.8121 26.5411 11.8095 26.5433C11.8069 26.5455 11.7882 26.5603 11.7943 26.5541C11.8459 26.4643 11.8661 26.3325 11.8898 26.2079C11.9667 25.8027 11.9716 25.3587 12.2133 24.9794C12.3539 24.7727 12.6396 24.7003 12.8495 24.7129C13.49 24.7416 13.8124 25.2846 13.7878 25.903C13.7966 26.1149 13.7325 26.3676 13.7937 26.5451C13.7963 26.5505 13.8099 26.5592 13.7951 26.55C13.8274 26.5662 13.9451 26.5686 14.0013 26.5696C14.4736 26.559 15.0948 26.5696 15.4512 26.9861C15.7737 27.395 15.6993 27.973 15.5561 28.4365L15.5679 28.2965C15.6797 28.9685 15.6893 29.7869 15.2783 30.39C15.1399 30.5926 14.973 30.7725 14.7833 30.9235C14.573 31.0805 14.3605 31.1657 14.1494 31.2436C13.5255 31.456 12.8913 31.5541 12.2409 31.6175L12.326 31.5958C11.4756 31.9544 10.5903 32.2161 9.68577 32.3765C8.33261 32.5979 6.711 32.6362 5.61063 31.645C4.51528 30.6005 4.34599 28.8725 4.74837 27.4572C5.5895 24.847 8.10454 22.5695 10.5483 21.6333C11.4087 21.2925 12.3159 21.0883 13.2305 20.9983C13.2657 20.9946 13.3012 20.9982 13.335 21.0089C13.3689 21.0196 13.4003 21.0371 13.4276 21.0606C13.4548 21.084 13.4774 21.1128 13.4938 21.1454C13.5103 21.178 13.5204 21.2136 13.5236 21.2502C13.5267 21.2869 13.5228 21.3238 13.5122 21.3589C13.5015 21.394 13.4842 21.4265 13.4614 21.4546C13.4386 21.4827 13.4106 21.5058 13.3791 21.5225C13.3477 21.5393 13.3133 21.5494 13.2781 21.5523V21.5527Z" fill="#371A45"/>
<path d="M6.61279 27.6363C6.61279 27.6363 7.24511 27.113 9.07998 26.9933L6.61279 27.6363Z" fill="white"/>
<path d="M6.52967 27.5273C6.89655 27.2432 7.33242 27.0925 7.76556 26.9657C8.17786 26.846 8.63816 26.769 9.06339 26.7158C9.43315 26.6805 9.4767 27.2457 9.10478 27.2707C8.48496 27.281 7.84158 27.3322 7.24562 27.512C7.05161 27.5719 6.85459 27.6442 6.68243 27.7534C6.54202 27.8406 6.4032 27.6353 6.52952 27.5273H6.52967Z" fill="#371A45"/>
<path d="M6.92695 32.2618C6.89488 32.2618 6.86327 32.2538 6.83478 32.2385C6.80629 32.2232 6.78176 32.201 6.76327 32.1737C6.14863 31.2704 5.99313 30.3479 6.3011 29.432C6.81026 27.9178 8.38488 26.9857 9.02424 26.793C9.05024 26.7826 9.07803 26.778 9.10584 26.7794C9.13366 26.7807 9.16089 26.7881 9.18583 26.801C9.21076 26.8139 9.23285 26.8321 9.25069 26.8543C9.26854 26.8765 9.28175 26.9024 9.2895 26.9302C9.29724 26.9581 9.29935 26.9873 9.29569 27.016C9.29203 27.0447 9.28267 27.0723 9.26822 27.0971C9.25377 27.1219 9.23453 27.1432 9.21173 27.1599C9.18893 27.1765 9.16306 27.188 9.13575 27.1937C8.4928 27.3881 7.11219 28.2831 6.67949 29.5699C6.41693 30.3509 6.55518 31.1458 7.09035 31.9325C7.11159 31.9637 7.12418 32.0004 7.12674 32.0385C7.1293 32.0766 7.12173 32.1148 7.10487 32.1487C7.088 32.1827 7.06248 32.2112 7.0311 32.231C6.99972 32.2509 6.96369 32.2615 6.92695 32.2615V32.2618Z" fill="#371A45"/>
<path d="M25.7887 8.81512C25.7887 8.81512 28.2216 9.77481 28.4716 10.2434C28.9352 11.1122 28.8491 16.219 27.5663 17.5502C27.0641 18.0717 23.375 18.5588 23.375 18.5588L25.7887 8.81512Z" fill="white"/>
<g opacity="0.2">
<path d="M23.3755 18.5588C23.3755 18.5588 27.0646 18.0714 27.5665 17.55C28.0683 17.0286 28.3856 15.9351 28.5593 14.7411C28.5187 14.7794 27.2157 15.9495 24.6164 13.571L24.6117 13.5668L23.3755 18.5588Z" fill="#371A45"/>
</g>
<path d="M15.2436 14.145V14.1893L15.2153 14.1675L15.2436 14.145Z" fill="#D8D8D8"/>
<path d="M15.2171 14.1675L15.189 14.1893V14.145L15.2171 14.1675Z" fill="#D8D8D8"/>
<path d="M7.18013 18.5589C7.18013 18.5589 3.49099 18.0716 2.98916 17.5502C2.48733 17.0287 2.17002 15.9352 1.99627 14.7412C1.72438 12.8778 1.80255 10.774 2.08523 10.2443C2.33514 9.77562 4.76798 8.81534 4.76798 8.81534L5.94467 13.5676L7.18013 18.5589Z" fill="white"/>
<g opacity="0.2">
<path d="M7.17995 18.5588C7.17995 18.5588 3.49081 18.0714 2.98898 17.55C2.48715 17.0286 2.16984 15.9351 1.99609 14.7411C2.03691 14.7794 3.33977 15.9495 5.93917 13.571C5.94046 13.5697 5.94248 13.5682 5.94377 13.5668L7.17995 18.5588Z" fill="#371A45"/>
</g>
<path d="M23.0186 18.8864L25.6044 8.44501L25.8835 8.55506C26.6425 8.85412 28.4369 9.60521 28.7054 10.1085C29.2191 11.0715 29.1539 16.2955 27.7558 17.7473C27.2163 18.3073 24.0405 18.7514 23.4093 18.8348L23.0186 18.8864ZM25.9726 9.18743L23.7334 18.2289C25.3936 17.9897 27.1249 17.6171 27.3781 17.3536C28.5624 16.124 28.6534 11.1569 28.2381 10.3786C28.1133 10.1649 27.0168 9.61807 25.9726 9.18743Z" fill="#371A45"/>
<path d="M7.53755 18.8864L7.14681 18.8348C6.51564 18.7514 3.33982 18.3073 2.80049 17.7473C1.4022 16.2955 1.33696 11.0715 1.85072 10.1085C2.11931 9.60521 3.91365 8.85457 4.67258 8.55506L4.95166 8.44501L7.53755 18.8864ZM4.58362 9.18758C3.53915 9.61733 2.44236 10.1651 2.31777 10.379C1.90288 11.1566 1.99371 16.124 3.17801 17.3536C3.43165 17.6171 5.16248 17.9897 6.82275 18.2289L4.58362 9.18758Z" fill="#371A45"/>
<path d="M15.2772 23.7525C21.507 23.7525 26.5573 18.4977 26.5573 12.0154C26.5573 5.53322 21.507 0.278351 15.2772 0.278351C9.04735 0.278351 3.99707 5.53322 3.99707 12.0154C3.99707 18.4977 9.04735 23.7525 15.2772 23.7525Z" fill="white"/>
<g opacity="0.2">
<path d="M26.5578 12.015C26.5578 18.4973 21.5076 23.7521 15.2777 23.7521C9.0478 23.7521 3.99658 18.4973 3.99658 12.015C3.99614 11.3423 4.05134 10.6707 4.16156 10.0078C5.0767 15.5333 9.70526 19.7368 15.2774 19.7368C20.8496 19.7368 25.4774 15.5333 26.3926 10.0078C26.5029 10.6707 26.5582 11.3423 26.5578 12.015Z" fill="#371A45"/>
</g>
<path d="M15.2774 24.0307C8.9101 24.0307 3.72998 18.6407 3.72998 12.0154C3.72998 5.39019 8.90967 0.000213623 15.2774 0.000213623C21.6451 0.000213623 26.8248 5.39019 26.8248 12.0154C26.8248 18.6407 21.6437 24.0307 15.2774 24.0307ZM15.2774 0.556467C9.20485 0.556467 4.26443 5.69687 4.26443 12.0154C4.26443 18.334 9.20485 23.4746 15.2774 23.4746C21.3499 23.4746 26.2902 18.334 26.2902 12.0154C26.2902 5.69687 21.3495 0.556467 15.2774 0.556467Z" fill="#371A45"/>
<path d="M15.2774 24.0307C8.9101 24.0307 3.72998 18.6407 3.72998 12.0154C3.72998 5.39019 8.90967 0.000213623 15.2774 0.000213623C21.6451 0.000213623 26.8248 5.39019 26.8248 12.0154C26.8248 18.6407 21.6437 24.0307 15.2774 24.0307ZM15.2774 0.556467C9.20485 0.556467 4.26443 5.69687 4.26443 12.0154C4.26443 18.334 9.20485 23.4746 15.2774 23.4746C21.3499 23.4746 26.2902 18.334 26.2902 12.0154C26.2902 5.69687 21.3495 0.556467 15.2774 0.556467Z" fill="#371A45"/>
<path d="M15.2774 24.0307C8.9101 24.0307 3.72998 18.6407 3.72998 12.0154C3.72998 5.39019 8.90967 0.000213623 15.2774 0.000213623C21.6451 0.000213623 26.8248 5.39019 26.8248 12.0154C26.8248 18.6407 21.6437 24.0307 15.2774 24.0307ZM15.2774 0.556467C9.20485 0.556467 4.26443 5.69687 4.26443 12.0154C4.26443 18.334 9.20485 23.4746 15.2774 23.4746C21.3499 23.4746 26.2902 18.334 26.2902 12.0154C26.2902 5.69687 21.3495 0.556467 15.2774 0.556467Z" fill="#371A45"/>
<path d="M15.2773 24.0305C10.0157 24.0305 5.42287 20.3371 4.10204 15.0473C4.09989 15.0409 4.09802 15.0345 4.09644 15.0278C3.74433 13.6058 3.64483 12.1289 3.80284 10.6697C4.45241 4.58769 9.3852 0.000396729 15.2773 0.000396729C21.1693 0.000396729 26.1037 4.58904 26.7528 10.6739C26.909 12.1316 26.8096 13.6067 26.4594 15.0275C26.4576 15.0343 26.4558 15.0412 26.4536 15.0478C25.1306 20.3376 20.537 24.0305 15.2773 24.0305ZM4.61566 14.8927C5.87052 19.9458 10.2542 23.4743 15.2773 23.4743C20.3003 23.4743 24.6843 19.9454 25.9404 14.8923C25.9422 14.8847 25.9443 14.8773 25.9468 14.8697C26.2771 13.5202 26.3703 12.1196 26.2218 10.7356C25.6017 4.93251 20.8963 0.5565 15.2773 0.5565C9.65825 0.5565 4.95424 4.93101 4.33413 10.7319C4.28764 11.158 4.26442 11.5865 4.26458 12.0153C4.26381 12.9781 4.37969 13.9371 4.60948 14.8697C4.61092 14.8773 4.61307 14.885 4.61494 14.8927H4.61566Z" fill="#371A45"/>
<path d="M26.1641 9.21541C26.1119 9.21538 26.0608 9.19944 26.0171 9.16955C25.9735 9.13965 25.9392 9.09712 25.9185 9.04719C24.1365 4.74146 19.9589 1.95945 15.2769 1.95945C10.5978 1.95945 6.42144 4.73907 4.63715 9.04106C4.60994 9.10494 4.56061 9.15582 4.49898 9.18358C4.43735 9.21134 4.36794 9.21395 4.30455 9.19088C4.24116 9.16782 4.18843 9.12077 4.15686 9.05909C4.1253 8.99742 4.11719 8.92564 4.13417 8.85803C5.49409 3.64256 10.0762 0 15.2773 0C20.4815 0 25.0646 3.64525 26.4224 8.86461C26.433 8.90584 26.4344 8.94906 26.4265 8.99094C26.4185 9.03282 26.4015 9.07224 26.3765 9.10616C26.3516 9.14008 26.3195 9.16758 26.2828 9.18655C26.246 9.20552 26.2056 9.21544 26.1646 9.21556L26.1641 9.21541ZM15.2773 1.40304C17.707 1.40304 20.0485 2.12079 22.0485 3.47927C22.8886 4.0483 23.6566 4.72505 24.3344 5.4936C22.3191 2.47039 18.9609 0.556403 15.2773 0.556403C11.6082 0.556403 8.26191 2.45723 6.24367 5.45965C8.48581 2.92048 11.745 1.40304 15.2773 1.40304Z" fill="#371A45"/>
<path d="M26.5567 12.0157C26.5574 13.0083 26.4374 13.997 26.1996 14.9583C26.1994 14.9583 26.1991 14.9584 26.1989 14.9586C26.1987 14.9588 26.1986 14.9591 26.1986 14.9594C24.2417 18.8931 20.0858 22.2778 15.2768 22.2778C10.4677 22.2778 6.31236 18.8931 4.35592 14.9594C4.35592 14.9591 4.35581 14.9588 4.35562 14.9586C4.35543 14.9584 4.35518 14.9583 4.35491 14.9583C4.11634 13.9972 3.9961 13.0084 3.99708 12.0157C3.99702 11.5766 4.02101 11.1379 4.06893 10.7016C5.59066 6.32041 10.0328 3.15036 15.2782 3.15036C20.5236 3.15036 24.9675 6.3225 26.4875 10.7046C26.534 11.14 26.5572 11.5777 26.5567 12.0157Z" fill="#371A45"/>
<g opacity="0.35">
<path d="M26.5568 12.016C26.5577 13.0086 26.4378 13.9973 26.2001 14.9586C26.1999 14.9586 26.1996 14.9587 26.1994 14.9589C26.1992 14.9591 26.1991 14.9594 26.1991 14.9597C24.2424 18.8934 20.0865 22.278 15.2773 22.278C10.4681 22.278 6.31258 18.8934 4.35556 14.9597C4.35556 14.9594 4.35545 14.9591 4.35526 14.9589C4.35507 14.9587 4.35482 14.9586 4.35455 14.9586C4.2139 14.3918 4.11432 13.8149 4.05664 13.2326C6.58591 16.189 10.2631 18.34 14.3571 18.34C19.5729 18.34 24.1149 14.8492 26.466 10.6483C26.4732 10.6675 26.4804 10.6858 26.4867 10.7051C26.5334 11.1404 26.5569 11.578 26.5568 12.016Z" fill="#111A28"/>
</g>
<path d="M15.2769 22.4273C12.9883 22.4273 10.702 21.6631 8.66626 20.2173C6.8186 18.9055 5.2447 17.0662 4.23343 15.0374C4.2257 15.0245 4.21993 15.0104 4.21633 14.9957C3.97461 14.0223 3.85254 13.021 3.85303 12.0157C3.85276 11.571 3.87675 11.1267 3.92488 10.6849C3.92605 10.6733 3.92861 10.662 3.9325 10.6511C4.69919 8.44356 6.17435 6.54438 8.19691 5.15853C10.2573 3.74726 12.7053 3.00125 15.2764 3.00125C17.8475 3.00125 20.2966 3.74771 22.3572 5.15972C24.3807 6.54632 25.8552 8.44625 26.6215 10.6544C26.6254 10.6654 26.628 10.6768 26.6291 10.6885C26.7837 12.1307 26.6853 13.5903 26.3388 14.996C26.3351 15.0107 26.3294 15.0247 26.3217 15.0377C25.3104 17.0664 23.7363 18.9058 21.8883 20.2176C19.852 21.6631 17.5656 22.4273 15.2769 22.4273ZM4.48923 14.9025C6.28429 18.5013 10.3133 22.1283 15.2769 22.1283C20.2404 22.1283 24.2704 18.5013 26.0655 14.9025C26.3981 13.5436 26.493 12.1334 26.3459 10.7395C24.7931 6.28913 20.3473 3.30046 15.2769 3.30046C10.2064 3.30046 5.76234 6.28793 4.20885 10.7365C4.06003 12.1315 4.15502 13.5431 4.48923 14.903V14.9025Z" fill="#371A45"/>
<g opacity="0.5">
<path d="M24.6388 11.7507C24.8101 10.6392 24.3215 9.63345 23.5473 9.50429C22.7732 9.37513 22.0068 10.1715 21.8355 11.283C21.6643 12.3945 22.1529 13.4002 22.927 13.5294C23.7011 13.6585 24.4675 12.8622 24.6388 11.7507Z" fill="white"/>
</g>
<g opacity="0.5">
<path d="M22.2876 15.6033C22.4316 15.1072 22.2167 14.6009 21.8076 14.4723C21.3986 14.3437 20.9502 14.6416 20.8062 15.1376C20.6622 15.6337 20.877 16.1401 21.2861 16.2686C21.6952 16.3972 22.1436 16.0993 22.2876 15.6033Z" fill="white"/>
</g>
<g opacity="0.5">
<path d="M6.63437 15.5341C6.63437 15.5341 4.74934 9.70245 7.74366 7.2995C10.738 4.89654 15.1117 4.814 15.0153 5.10798C15.0153 5.10798 10.1973 6.42968 8.38043 10.4523C6.97898 13.5544 6.63437 15.5341 6.63437 15.5341Z" fill="white"/>
</g>
<path d="M6.06949 46.0651C9.26786 46.0651 11.8607 43.3673 11.8607 40.0394C11.8607 36.7114 9.26786 34.0136 6.06949 34.0136C2.87111 34.0136 0.27832 36.7114 0.27832 40.0394C0.27832 43.3673 2.87111 46.0651 6.06949 46.0651Z" fill="#FFD62C"/>
<path d="M11.8604 40.0396C11.8604 43.367 9.2682 46.0648 6.06896 46.0648C3.83487 46.0648 1.89624 44.7489 0.930664 42.82C1.96953 44.4337 3.73772 45.4954 5.7449 45.4954C8.94342 45.4954 11.5364 42.7976 11.5364 39.4693C11.5379 38.5029 11.3147 37.5504 10.8858 36.6933C11.5231 37.6831 11.8624 38.8482 11.8604 40.0396Z" fill="#FFB42E"/>
<g opacity="0.7">
<path d="M11.5862 38.2043C10.7916 36.2754 9.05691 34.8647 6.98204 34.597V34.6003C6.99124 34.8263 6.56356 35.0287 6.02753 35.053C5.4915 35.0772 5.04902 34.9129 5.03968 34.6868V34.6848C2.42777 35.268 0.469744 37.6843 0.469744 40.5763C0.469023 41.1962 0.560597 41.8125 0.74121 42.4033C0.434797 41.6561 0.277323 40.852 0.278325 40.0397C0.278325 36.7116 2.87126 34.0136 6.06978 34.0136C8.65251 34.0137 10.8409 35.7742 11.5862 38.2043Z" fill="white"/>
</g>
<path d="M6.06924 46.3545C2.7227 46.3545 0 43.5217 0 40.0394C0 36.5572 2.7227 33.7243 6.06924 33.7243C9.41578 33.7243 12.1385 36.5573 12.1385 40.0394C12.1385 43.5215 9.41578 46.3545 6.06924 46.3545ZM6.06924 34.3031C3.02938 34.3031 0.556296 36.8764 0.556296 40.0394C0.556296 43.2024 3.02938 45.7757 6.06924 45.7757C9.10911 45.7757 11.5822 43.2024 11.5822 40.0394C11.5822 36.8764 9.10911 34.3031 6.06924 34.3031Z" fill="#371A45"/>
<path d="M6.06939 44.5687C8.47352 44.5687 10.4225 42.5408 10.4225 40.0393C10.4225 37.5377 8.47352 35.5098 6.06939 35.5098C3.66525 35.5098 1.71631 37.5377 1.71631 40.0393C1.71631 42.5408 3.66525 44.5687 6.06939 44.5687Z" fill="#FF9C43"/>
<path d="M6.06939 44.5687C8.47352 44.5687 10.4225 42.5408 10.4225 40.0393C10.4225 37.5377 8.47352 35.5098 6.06939 35.5098C3.66525 35.5098 1.71631 37.5377 1.71631 40.0393C1.71631 42.5408 3.66525 44.5687 6.06939 44.5687Z" fill="#FF9C43"/>
<path d="M10.4224 40.0395C10.4224 42.5407 8.47325 44.5688 6.06929 44.5688C4.10178 44.5688 2.44007 43.2112 1.90088 41.3472C2.55389 42.9898 4.1091 44.1456 5.92472 44.1456C8.32925 44.1456 10.2778 42.1176 10.2778 39.6162C10.2784 39.1735 10.2164 38.7331 10.0937 38.3092C10.3117 38.8578 10.4234 39.4459 10.4224 40.0395Z" fill="#FF7A45"/>
<path d="M1.71632 40.0393C1.71632 37.5381 3.66544 35.51 6.06939 35.51C8.03691 35.51 9.69861 36.8676 10.2378 38.7316C9.58479 37.0891 8.02958 35.9332 6.21396 35.9332C3.80943 35.9332 1.86089 37.9613 1.86089 40.4626C1.86028 40.9053 1.92231 41.3457 2.04498 41.7697C1.82695 41.221 1.71525 40.633 1.71632 40.0393Z" fill="#FF7A45"/>
<path d="M7.34488 40.9475C7.34488 41.4917 6.94164 41.9113 6.39971 42.0425V42.698H5.69367V42.0293C5.14542 41.8784 4.71645 41.4261 4.67334 41.3802L5.17733 40.8556C5.21512 40.9015 5.60587 41.3277 6.05955 41.3277C6.39986 41.3277 6.62002 41.1508 6.62002 40.9539C6.62002 40.3638 4.75482 40.2523 4.75482 39.1245C4.75482 38.5804 5.15175 38.1608 5.69367 38.0362V37.3806H6.39942V38.0493C6.94767 38.2001 7.37664 38.6459 7.41975 38.6922L6.92195 39.2168C6.87783 39.1643 6.48091 38.7579 6.03354 38.7579C5.69324 38.7579 5.47308 38.9224 5.47308 39.1185C5.47308 39.7083 7.34488 39.8197 7.34488 40.9475Z" fill="#FFD62C"/>
</svg>
