<svg width="26" height="32" viewBox="0 0 26 32" fill="none" xmlns="http://www.w3.org/2000/svg">
<path d="M14.5303 26.4694C14.4284 26.4713 14.3186 26.4782 14.2021 26.4898C12.9555 26.6127 11.0215 27.2523 11.0215 27.2523L8.82203 30.4504C8.76213 30.5369 8.67518 30.6011 8.57483 30.6329C8.47449 30.6647 8.36643 30.6623 8.2676 30.6261C6.56732 29.9969 5.07534 29.1978 3.82912 28.1963C3.75137 28.134 3.69536 28.0486 3.66912 27.9525C3.64287 27.8563 3.64775 27.7543 3.68305 27.6611C3.71031 27.5898 3.74222 27.5098 3.77877 27.4235C3.98346 26.9483 4.34066 26.2979 4.8556 25.9906C5.71847 25.4762 6.87587 26.1716 6.87587 26.1716C6.87587 26.1716 8.42182 23.9032 8.92918 23.3378C9.43654 22.7724 11.1428 22.0769 11.1428 22.0769L14.1918 24.2323C14.1918 24.2323 15.7288 26.4503 14.5303 26.4694Z" fill="#F8F8F8"/>
<path d="M25.2481 23.475C25.2445 23.852 25.1137 24.2167 24.877 24.5101C24.3216 25.2003 23.1148 26.3054 21.1798 26.1349C20.7367 26.0961 20.347 25.7894 20.0048 25.3017C18.1927 22.7229 17.7004 15.0749 17.7004 15.0749L20.2084 13.0164C20.2084 13.0164 22.6584 13.1027 23.5576 13.9076C23.9501 14.2591 24.3421 15.4246 24.65 16.9758C24.8031 17.747 24.936 18.6139 25.0369 19.5238C25.1174 20.2479 25.1777 20.9984 25.2132 21.7493C25.2411 22.3286 25.2524 22.9079 25.2481 23.475Z" fill="#F8F8F8"/>
<path d="M21.5768 26.3618C21.4419 26.3618 21.3034 26.3556 21.1613 26.3432C19.9025 26.2324 18.9032 24.2839 18.1909 20.5523C17.6726 17.8367 17.4935 15.1156 17.4918 15.0885C17.4896 15.0608 17.4929 15.033 17.5016 15.0067C17.5103 14.9804 17.5241 14.956 17.5422 14.9351C17.5604 14.9141 17.5825 14.897 17.6073 14.8847C17.6322 14.8724 17.6592 14.8651 17.6868 14.8633C17.7145 14.8616 17.7422 14.8653 17.7684 14.8743C17.7946 14.8834 17.8188 14.8975 17.8395 14.916C17.8601 14.9344 17.8769 14.9568 17.8889 14.9818C17.9009 15.0068 17.9077 15.034 17.9091 15.0616C17.9108 15.0886 18.0885 17.7867 18.6022 20.4772C19.2562 23.9015 20.1781 25.8369 21.1981 25.9267C23.0416 26.0888 24.1922 25.0269 24.7141 24.3793C24.921 24.1223 25.0354 23.8032 25.0389 23.4733C25.0748 19.2195 24.1775 14.7438 23.4177 14.0636C22.586 13.3187 20.225 13.2263 20.2013 13.2255C20.1458 13.2235 20.0934 13.1996 20.0556 13.1591C20.0178 13.1185 19.9977 13.0646 19.9996 13.0091C20.0016 12.9537 20.0255 12.9013 20.066 12.8635C20.1066 12.8257 20.1605 12.8056 20.216 12.8075C20.3192 12.8111 22.7523 12.9064 23.6966 13.7521C24.6366 14.5937 25.4921 19.3198 25.4571 23.4768C25.4527 23.9012 25.3057 24.3116 25.0397 24.6423C24.5057 25.3044 23.3718 26.3616 21.5768 26.3618Z" fill="#371A45"/>
<path d="M25.2128 21.7493C24.4294 22.255 23.0685 22.6187 22.5425 22.222L22.6086 19.4339L22.6426 18.0335C22.6426 18.0335 23.6261 17.311 24.65 16.9758C25.1232 16.821 25.3871 17.5145 25.5413 18.3789C25.5431 18.3893 25.5448 18.4009 25.5472 18.4128C25.7211 19.4126 25.7519 20.6257 25.7901 21.0189C25.8124 21.2518 25.574 21.5157 25.2128 21.7493Z" fill="#F8F8F8"/>
<path d="M23.1931 22.5996C22.8876 22.5996 22.6144 22.5385 22.4161 22.3889C22.3728 22.3552 22.3444 22.3058 22.3372 22.2513C22.33 22.1968 22.3445 22.1417 22.3776 22.0979C22.4107 22.054 22.4597 22.025 22.514 22.017C22.5684 22.009 22.6237 22.0227 22.668 22.0551C23.0278 22.3267 24.0852 22.1488 24.931 21.6745C25.3949 21.4142 25.5935 21.1628 25.5814 21.0392C25.5707 20.9303 25.561 20.7676 25.5488 20.5608C25.4996 19.733 25.3689 17.5341 24.8686 17.1937C24.8197 17.1604 24.7751 17.1549 24.7145 17.1747C23.7357 17.4951 22.7749 18.195 22.7653 18.2021C22.7432 18.2188 22.718 18.231 22.6912 18.2379C22.6643 18.2448 22.6364 18.2463 22.6089 18.2423C22.5815 18.2383 22.5552 18.2289 22.5314 18.2146C22.5076 18.2003 22.4869 18.1815 22.4705 18.1591C22.4541 18.1368 22.4423 18.1114 22.4358 18.0844C22.4293 18.0575 22.4283 18.0295 22.4327 18.0021C22.4371 17.9748 22.4469 17.9486 22.4615 17.925C22.4761 17.9015 22.4953 17.8811 22.5179 17.865C22.5592 17.8347 23.5407 17.1189 24.5845 16.7772C24.7679 16.7172 24.9476 16.7417 25.1039 16.848C25.7224 17.2688 25.8733 18.9724 25.9662 20.536C25.9782 20.738 25.9876 20.8975 25.9975 20.9984C26.0309 21.3392 25.7248 21.7089 25.1356 22.0394C24.6215 22.3276 23.8372 22.5996 23.1931 22.5996Z" fill="#371A45"/>
<g opacity="0.25">
<path d="M25.2128 21.7493C25.2407 22.3287 25.2528 22.908 25.2481 23.4751C25.2445 23.8521 25.1137 24.2168 24.877 24.5102C24.3216 25.2004 23.1148 26.3055 21.1798 26.135C20.7367 26.0962 20.347 25.7894 20.0048 25.3018C20.0367 24.1721 20.1945 24.0893 20.3197 22.9915C20.4548 21.8016 20.6868 21.0286 20.8417 20.8547L22.6085 19.4339L22.6932 19.366C22.6932 19.366 22.7558 20.0282 23.6639 19.9969C24.1301 19.9806 24.6561 19.8113 25.0365 19.5237C25.3971 19.2506 25.6263 18.8707 25.5468 18.4126C25.7207 19.4124 25.7515 20.6254 25.7898 21.0186C25.8124 21.2518 25.574 21.5157 25.2128 21.7493Z" fill="#371A45"/>
</g>
<path d="M25.3165 17.7695C24.9938 17.8682 24.6672 17.98 24.3547 18.1077C24.1404 18.202 23.8922 18.2958 23.7282 18.4523C23.7204 18.4598 23.7184 18.4653 23.7124 18.4718C23.7124 18.4759 23.7094 18.4746 23.7082 18.4787C23.6979 18.5301 23.691 18.5821 23.6876 18.6343C23.6685 18.9705 23.6787 19.3191 23.6876 19.6633C23.6982 20.0086 23.7128 20.3541 23.7316 20.6997C23.6795 20.3576 23.6311 20.0148 23.5864 19.6713C23.544 19.3266 23.4995 18.9852 23.4846 18.6304C23.4846 18.5738 23.4828 18.5085 23.4911 18.4506C23.4944 18.4033 23.5192 18.3521 23.5463 18.3148C23.7333 18.086 23.9829 17.9713 24.2252 17.8329C24.5385 17.6677 24.8548 17.5235 25.1819 17.3872C25.4468 17.2884 25.5867 17.6798 25.3169 17.7701L25.3165 17.7695Z" fill="#371A45"/>
<path d="M8.4328 30.8647C8.35193 30.8647 8.2717 30.8503 8.19587 30.8221C6.43483 30.171 4.9218 29.3424 3.69878 28.3596C3.58641 28.2697 3.50546 28.1465 3.46758 28.0076C3.4297 27.8688 3.43685 27.7216 3.48798 27.5871C3.67502 27.0934 4.08767 26.2067 4.74903 25.8117C5.50633 25.3599 6.42905 25.7153 6.80912 25.9002C7.1695 25.3748 8.33538 23.6877 8.77417 23.1987C9.30756 22.6044 10.9926 21.9127 11.064 21.8835C11.1153 21.8625 11.1729 21.8627 11.2241 21.8842C11.2752 21.9056 11.3158 21.9465 11.3368 21.9979C11.3578 22.0492 11.3575 22.1068 11.3361 22.158C11.3146 22.2091 11.2737 22.2497 11.2224 22.2707C10.7603 22.4593 9.47547 23.0439 9.0859 23.478C8.59347 24.0266 7.06484 26.2674 7.04922 26.29C7.01917 26.3341 6.97338 26.365 6.92125 26.3764C6.86911 26.3878 6.81458 26.3789 6.76884 26.3514C6.75854 26.3453 5.7066 25.7275 4.96344 26.1704C4.41082 26.5001 4.04694 27.292 3.87925 27.7347C3.85954 27.7867 3.85682 27.8436 3.87148 27.8972C3.88614 27.9508 3.91742 27.9984 3.96083 28.0331C5.14889 28.9876 6.62243 29.7939 8.34104 30.4295C8.39617 30.4499 8.45654 30.4514 8.51259 30.4336C8.56864 30.4159 8.61718 30.3799 8.6505 30.3315L10.8501 27.1336C10.876 27.096 10.9135 27.0679 10.9568 27.0536C11.0523 27.022 13.311 26.2798 14.5273 26.2602C14.7084 26.2573 14.7423 26.193 14.7527 26.1718C14.9063 25.8731 14.4066 24.9086 14.0205 24.3509C14.0036 24.3284 13.9915 24.3027 13.9847 24.2754C13.978 24.2481 13.9768 24.2197 13.9814 24.1919C13.9859 24.1641 13.9959 24.1375 14.011 24.1137C14.026 24.0899 14.0457 24.0694 14.0689 24.0534C14.092 24.0374 14.1182 24.0262 14.1457 24.0205C14.1733 24.0149 14.2017 24.0149 14.2293 24.0205C14.2569 24.0261 14.2831 24.0372 14.3063 24.0531C14.3295 24.0691 14.3492 24.0895 14.3643 24.1133C14.548 24.3785 15.4482 25.7334 15.1246 26.3633C15.0524 26.504 14.8913 26.673 14.534 26.6787C13.493 26.6955 11.5386 27.3063 11.1545 27.4296L8.99504 30.5689C8.93236 30.6601 8.84842 30.7347 8.75047 30.7862C8.65251 30.8378 8.54349 30.8647 8.4328 30.8647Z" fill="#371A45"/>
<g opacity="0.25">
<path d="M14.6127 25.5127C14.6127 25.6432 14.5257 25.7157 14.4242 25.9766C14.3818 26.0851 14.3019 26.2724 14.2026 26.4898C12.9559 26.6127 11.022 27.2524 11.022 27.2524L8.82252 30.4504C8.76261 30.5369 8.67567 30.6012 8.57532 30.633C8.47498 30.6648 8.36691 30.6624 8.26809 30.6261C6.5678 29.9969 5.07583 29.1978 3.82961 28.1964C3.75186 28.134 3.69585 28.0486 3.6696 27.9525C3.64336 27.8563 3.64824 27.7544 3.68353 27.6612C3.7108 27.5899 3.74271 27.5099 3.77926 27.4236L4.34172 27.7546C6.29591 28.8182 7.71887 28.8923 8.40783 27.5998C8.40783 27.5998 9.74151 25.8022 10.8066 25.06C11.8716 24.3177 11.7279 23.1348 11.7279 23.1348L14.2939 25.1933C14.3807 25.2663 14.6127 25.3822 14.6127 25.5127Z" fill="#371A45"/>
</g>
<path d="M11.0465 27.3683C11.0326 27.3683 11.0187 27.3667 11.0052 27.3634C8.88208 26.8474 7.59762 25.186 7.54399 25.1155C7.53015 25.0974 7.52002 25.0766 7.51419 25.0545C7.50836 25.0325 7.50693 25.0094 7.50999 24.9868C7.51306 24.9642 7.52055 24.9424 7.53204 24.9226C7.54353 24.9029 7.5588 24.8856 7.57697 24.8717C7.59514 24.8579 7.61587 24.8478 7.63795 24.8419C7.66004 24.8361 7.68306 24.8347 7.70569 24.8378C7.72833 24.8408 7.75014 24.8483 7.76988 24.8598C7.78962 24.8713 7.80691 24.8866 7.82075 24.9047C7.83478 24.9229 9.08869 26.5395 11.0874 27.0254C11.1287 27.0354 11.165 27.0602 11.1893 27.0951C11.2136 27.1301 11.2242 27.1727 11.2192 27.215C11.2142 27.2572 11.1938 27.2962 11.162 27.3244C11.1301 27.3527 11.0891 27.3683 11.0465 27.3683Z" fill="#371A45"/>
<path d="M6.82145 22.8787C6.82145 22.8787 8.46527 22.5412 9.76795 21.5842L6.56653 21.8281" fill="#F8F8F8"/>
<g opacity="0.25">
<path d="M6.82145 22.8787C6.82145 22.8787 8.46527 22.5412 9.76795 21.5842L6.56653 21.8281" fill="#371A45"/>
</g>
<path d="M6.82121 23.0875C6.76945 23.0875 6.71956 23.0682 6.68119 23.0335C6.64282 22.9987 6.6187 22.951 6.61349 22.8995C6.60828 22.848 6.62236 22.7964 6.65299 22.7547C6.68363 22.713 6.72865 22.6841 6.77934 22.6736C6.7953 22.6704 8.39544 22.3328 9.64415 21.4156C9.68889 21.3839 9.74426 21.3711 9.79835 21.3799C9.85243 21.3887 9.90091 21.4183 9.93335 21.4625C9.9658 21.5066 9.97961 21.5618 9.97182 21.616C9.96404 21.6702 9.93527 21.7193 9.89172 21.7525C8.56788 22.7256 6.93243 23.0691 6.86341 23.0832C6.84953 23.0861 6.83539 23.0876 6.82121 23.0875Z" fill="#371A45"/>
<path d="M20.3388 27.6775L18.0686 30.6441C17.5029 31.3834 16.4635 31.58 15.6767 31.0824C14.9785 30.6412 14.3887 29.8172 14.0257 28.9485C13.7532 28.2984 13.6082 27.6229 13.6384 27.0622C13.6506 26.864 13.7172 26.673 13.8308 26.5101L14.064 26.1698C14.064 26.1698 12.0222 25.5474 11.5826 22.3622V21.5307C11.5826 21.5307 10.5197 21.4599 10.442 21.3213C10.3642 21.1827 9.38141 17.8004 9.38141 17.8004C9.38141 17.8004 10.7128 15.6345 12.6264 14.7942C13.5286 14.3982 14.7888 14.2463 15.8679 14.1958C17.0776 14.1392 18.0605 14.2114 18.0605 14.2114L19.7618 14.1216C19.7618 14.1216 21.2086 14.5339 21.9815 15.9058C22.7544 17.2777 22.9871 19.7 22.2912 20.9346C23.1954 24.0102 22.8074 26.3976 20.3388 27.6775Z" fill="#F8F8F8"/>
<path d="M16.6213 31.5629C16.2475 31.5639 15.8811 31.4586 15.565 31.2591C14.2185 30.407 13.3593 28.3574 13.4296 27.051C13.4441 26.8145 13.5233 26.5866 13.6585 26.3921L13.7462 26.2641C13.1565 25.9773 11.7393 25.0252 11.3756 22.3907C11.3743 22.3813 11.3736 22.3718 11.3736 22.3622V21.7251C10.3825 21.6433 10.3033 21.5017 10.2598 21.4236C10.1824 21.2849 9.55033 19.1307 9.18045 17.8594C9.17229 17.8314 9.17009 17.802 9.17399 17.7731C9.17789 17.7442 9.1878 17.7164 9.20308 17.6916C9.25886 17.6011 10.5914 15.4604 12.5424 14.6035C14.4812 13.752 17.9297 13.9932 18.0754 14.0038C18.1303 14.0084 18.1812 14.0345 18.217 14.0763C18.2528 14.1182 18.2706 14.1725 18.2666 14.2274C18.2626 14.2824 18.237 14.3335 18.1955 14.3697C18.1541 14.406 18.0999 14.4243 18.045 14.4209C18.0102 14.4184 14.5539 14.1767 12.7105 14.9866C11.0801 15.7026 9.8633 17.4479 9.60849 17.8344C9.95733 19.0324 10.4957 20.8554 10.6128 21.1864C10.7582 21.239 11.2172 21.2978 11.5965 21.3232C11.6494 21.3267 11.6991 21.3502 11.7353 21.389C11.7715 21.4277 11.7917 21.4788 11.7917 21.5318V22.3485C12.2124 25.3541 14.1058 25.9651 14.1249 25.9709C14.1563 25.9805 14.185 25.9973 14.2087 26.02C14.2324 26.0427 14.2504 26.0707 14.2613 26.1017C14.2722 26.1327 14.2756 26.1658 14.2713 26.1983C14.267 26.2309 14.2551 26.262 14.2365 26.2891L14.0034 26.6292C13.9116 26.7602 13.8575 26.9139 13.847 27.0735C13.7829 28.2616 14.5996 30.1533 15.7883 30.9057C16.4745 31.3401 17.403 31.1694 17.9022 30.5172L20.1728 27.551C20.1916 27.5266 20.2154 27.5067 20.2427 27.4925C22.4377 26.3548 23.0417 24.2291 22.0906 20.9939C22.0827 20.9671 22.0803 20.939 22.0834 20.9112C22.0866 20.8834 22.0953 20.8566 22.109 20.8322C22.7281 19.7341 22.5778 17.3903 21.7997 16.0092C21.0803 14.7322 19.7178 14.3269 19.7044 14.3233C19.6511 14.308 19.606 14.2722 19.579 14.2238C19.5521 14.1753 19.5455 14.1181 19.5608 14.0648C19.576 14.0114 19.6118 13.9663 19.6603 13.9394C19.7087 13.9125 19.7659 13.9059 19.8192 13.9211C19.8817 13.9389 21.3581 14.3737 22.164 15.8041C22.9184 17.143 23.2172 19.6006 22.5158 20.959C22.9822 22.5794 23.0693 23.9121 22.7824 25.0323C22.4692 26.2543 21.6937 27.1993 20.4768 27.8422L18.2345 30.772C17.8403 31.2863 17.2331 31.5629 16.6213 31.5629Z" fill="#371A45"/>
<path d="M13.1298 18.4126H17.5402C17.7301 18.4126 17.9122 18.488 18.0465 18.6223C18.1807 18.7565 18.2561 18.9386 18.2561 19.1285V21.7988C18.2561 21.9856 18.1831 22.165 18.0527 22.2987C17.9223 22.4324 17.7448 22.5099 17.558 22.5146L13.1476 22.624C13.0521 22.6263 12.9571 22.6096 12.8682 22.5747C12.7793 22.5397 12.6983 22.4874 12.6299 22.4207C12.5616 22.354 12.5072 22.2743 12.4701 22.1863C12.4331 22.0983 12.4139 22.0037 12.4139 21.9082V19.1285C12.4139 18.9386 12.4894 18.7565 12.6236 18.6223C12.7579 18.488 12.94 18.4126 13.1298 18.4126Z" fill="#F8F8F8"/>
<path d="M13.129 22.8334C12.8838 22.8332 12.6488 22.7356 12.4755 22.5621C12.3022 22.3887 12.2048 22.1535 12.2048 21.9083V19.1284C12.2051 18.8831 12.3027 18.648 12.4761 18.4746C12.6495 18.3012 12.8846 18.2037 13.1298 18.2034H17.5402C17.7855 18.2037 18.0206 18.3012 18.194 18.4746C18.3674 18.648 18.4649 18.8831 18.4652 19.1284V21.7987C18.4666 22.0404 18.3727 22.273 18.2039 22.4461C18.0351 22.6191 17.8049 22.7188 17.5632 22.7234L13.1528 22.8328C13.1449 22.8332 13.137 22.8334 13.129 22.8334ZM13.1298 18.6216C12.9955 18.6217 12.8666 18.6752 12.7716 18.7702C12.6766 18.8652 12.6232 18.994 12.623 19.1284V21.9083C12.623 21.9759 12.6365 22.0429 12.6628 22.1052C12.689 22.1675 12.7275 22.2239 12.7759 22.2712C12.8243 22.3184 12.8816 22.3555 12.9446 22.3802C13.0075 22.4049 13.0748 22.4168 13.1424 22.4151L17.5528 22.3057C17.6853 22.3031 17.8114 22.2485 17.9039 22.1537C17.9964 22.0588 18.0479 21.9314 18.0471 21.7989V19.1286C18.047 18.9942 17.9935 18.8654 17.8985 18.7704C17.8034 18.6754 17.6746 18.6219 17.5402 18.6218L13.1298 18.6216Z" fill="#371A45"/>
<path d="M11.8589 18.4609H16.2693C16.4592 18.461 16.6413 18.5364 16.7755 18.6707C16.9098 18.805 16.9852 18.9871 16.9852 19.1769V21.8472C16.9852 22.0341 16.9122 22.2135 16.7818 22.3472C16.6514 22.4809 16.4738 22.5584 16.2871 22.563L11.8767 22.6724C11.7812 22.6748 11.6862 22.658 11.5973 22.6231C11.5084 22.5882 11.4274 22.5359 11.359 22.4692C11.2906 22.4025 11.2363 22.3227 11.1992 22.2347C11.1621 22.1467 11.143 22.0522 11.143 21.9567V19.1769C11.143 19.0829 11.1615 18.9898 11.1975 18.9029C11.2334 18.8161 11.2862 18.7371 11.3526 18.6707C11.4191 18.6042 11.498 18.5514 11.5849 18.5154C11.6718 18.4795 11.7649 18.4609 11.8589 18.4609Z" fill="#F8F8F8"/>
<path d="M14.8979 22.8005C14.8449 22.8005 14.7941 22.7798 14.7562 22.7428C14.7183 22.7058 14.6964 22.6554 14.6951 22.6025C14.6863 22.2439 14.6757 21.682 14.6859 21.3925C14.368 21.3133 13.4143 21.1871 12.5573 21.0983C12.509 21.0933 12.464 21.0712 12.4307 21.0359C12.3973 21.0006 12.3777 20.9545 12.3755 20.906L12.2595 18.4704C12.2576 18.4435 12.2611 18.4164 12.2698 18.3908C12.2785 18.3652 12.2922 18.3416 12.3102 18.3213C12.3282 18.3011 12.35 18.2847 12.3744 18.273C12.3988 18.2614 12.4253 18.2547 12.4523 18.2534C12.4793 18.2521 12.5063 18.2562 12.5317 18.2655C12.5571 18.2748 12.5804 18.2891 12.6002 18.3075C12.62 18.3259 12.6359 18.3481 12.647 18.3728C12.6581 18.3974 12.6642 18.424 12.6649 18.4511L12.7726 20.7127C14.9155 20.9402 15.0051 21.0648 15.0595 21.1402C15.0774 21.1649 15.0899 21.1932 15.0962 21.2231C15.1025 21.2531 15.1023 21.284 15.0958 21.3139C15.0819 21.4025 15.0872 22.0346 15.1009 22.5924C15.1022 22.6462 15.0821 22.6984 15.0449 22.7373C15.0078 22.7763 14.9568 22.799 14.903 22.8003L14.8979 22.8005ZM14.6995 21.2264C14.6985 21.2308 14.6977 21.2352 14.697 21.2396C14.6978 21.2347 14.6986 21.2302 14.6995 21.2259V21.2264Z" fill="#371A45"/>
<path d="M11.8583 22.8817C11.6131 22.8815 11.378 22.784 11.2046 22.6105C11.0313 22.437 10.934 22.2019 10.934 21.9566V19.1767C10.9343 18.9315 11.0318 18.6964 11.2052 18.523C11.3786 18.3496 11.6137 18.252 11.8589 18.2517H16.2694C16.5146 18.252 16.7497 18.3496 16.9231 18.523C17.0965 18.6964 17.1941 18.9315 17.1944 19.1767V21.847C17.1957 22.0888 17.1018 22.3213 16.933 22.4944C16.7642 22.6675 16.5341 22.7671 16.2923 22.7718L11.8819 22.8812L11.8583 22.8817ZM11.8589 18.6699C11.7246 18.6701 11.5957 18.7235 11.5007 18.8185C11.4057 18.9135 11.3522 19.0423 11.352 19.1767V21.9566C11.3521 22.0243 11.3656 22.0912 11.3919 22.1535C11.4181 22.2158 11.4566 22.2723 11.505 22.3195C11.5534 22.3667 11.6108 22.4038 11.6737 22.4285C11.7367 22.4532 11.8039 22.4651 11.8715 22.4634L16.2819 22.354C16.4144 22.3515 16.5405 22.2969 16.633 22.202C16.7255 22.1072 16.7769 21.9797 16.7762 21.8472V19.1769C16.776 19.0426 16.7226 18.9137 16.6276 18.8187C16.5326 18.7237 16.4037 18.6703 16.2694 18.6701L11.8589 18.6699Z" fill="#371A45"/>
<path d="M16.8469 21.0298L16.8307 21.336C16.8256 21.4314 16.7849 21.5214 16.7168 21.5884C16.6486 21.6554 16.5579 21.6945 16.4624 21.6981L10.8509 21.8981L3.09447 22.1753C3.04411 22.1771 2.99389 22.1689 2.9467 22.1512C2.89951 22.1336 2.85628 22.1067 2.81948 22.0723C2.78268 22.0379 2.75305 21.9965 2.73228 21.9506C2.71151 21.9047 2.70002 21.8551 2.69845 21.8048L2.68861 21.4865C2.68672 21.4273 2.69867 21.3684 2.72352 21.3147C2.74837 21.2609 2.78543 21.2137 2.83174 21.1768H2.83242C2.89624 21.1245 2.9755 21.0948 3.05793 21.0921L10.7936 20.8236H10.8092L16.4514 20.6277C16.5044 20.6258 16.5572 20.635 16.6065 20.6547C16.6558 20.6743 16.7004 20.704 16.7376 20.7418C16.7748 20.7796 16.8037 20.8247 16.8225 20.8743C16.8413 20.9239 16.8496 20.9768 16.8469 21.0298Z" fill="#BCC4CC"/>
<g opacity="0.61">
<path d="M16.8469 21.0298L16.8355 21.242C16.814 21.1572 16.764 21.0824 16.6941 21.0299C16.6241 20.9773 16.5383 20.9503 16.4508 20.9533L10.8147 21.1493L10.8066 20.8234L16.4517 20.6274C16.5047 20.6256 16.5575 20.6349 16.6067 20.6545C16.656 20.6742 16.7006 20.7039 16.7377 20.7417C16.7749 20.7796 16.8038 20.8247 16.8226 20.8743C16.8413 20.9239 16.8496 20.9768 16.8469 21.0298Z" fill="#CEB7FF"/>
</g>
<path d="M10.8625 21.8694L10.8498 21.8683L2.8324 21.1771H2.83172L2.52735 20.5109L0.212666 15.4474C0.183032 15.3829 0.171222 15.3116 0.178465 15.2411C0.185709 15.1705 0.211741 15.1031 0.253852 15.046L0.433645 14.8013C0.468678 14.754 0.513762 14.7151 0.56565 14.6873C0.617538 14.6595 0.674938 14.6436 0.733715 14.6407L7.45338 14.2852C7.67637 14.2733 7.89745 14.332 8.08515 14.453C8.27285 14.5739 8.41763 14.751 8.49888 14.959L8.51279 14.9939L10.7935 20.8245L10.8329 21.4235L10.8625 21.8694Z" fill="#BCC4CC"/>
<g opacity="0.61">
<path d="M10.7999 20.9205L8.61485 15.335C8.53359 15.127 8.38881 14.9499 8.20111 14.829C8.01341 14.708 7.79235 14.6493 7.56936 14.6612L0.849692 15.0171C0.790914 15.0201 0.73354 15.0361 0.681708 15.064C0.629876 15.0919 0.584879 15.1309 0.549962 15.1783L0.370168 15.4229C0.326771 15.4817 0.300495 15.5514 0.294246 15.6242L0.212666 15.4474C0.183032 15.3829 0.171222 15.3116 0.178465 15.2411C0.185709 15.1705 0.211741 15.1031 0.253852 15.046L0.433645 14.8013C0.468678 14.754 0.513762 14.7151 0.56565 14.6873C0.617538 14.6595 0.674938 14.6436 0.733715 14.6407L7.45338 14.2852C7.67637 14.2733 7.89745 14.332 8.08515 14.453C8.27285 14.5739 8.41763 14.751 8.49888 14.959L10.7935 20.8245L10.7999 20.9205Z" fill="#CEB7FF"/>
</g>
<path d="M3.08042 22.353C2.93516 22.3528 2.79567 22.2961 2.69143 22.195C2.58719 22.0938 2.52636 21.9561 2.52181 21.8109L2.51185 21.4923C2.50739 21.3443 2.56165 21.2005 2.66279 21.0924C2.76393 20.9843 2.90373 20.9206 3.05168 20.9152L16.4453 20.45C16.5228 20.4474 16.6001 20.4608 16.6721 20.4896C16.7441 20.5183 16.8094 20.5618 16.8637 20.6171C16.9181 20.6724 16.9604 20.7384 16.9878 20.811C17.0153 20.8835 17.0274 20.961 17.0234 21.0384L17.0074 21.3446C17.0008 21.4845 16.9416 21.6167 16.8418 21.715C16.7419 21.8132 16.6087 21.8701 16.4687 21.8745L3.1009 22.352C3.09411 22.3529 3.08721 22.353 3.08042 22.353ZM3.06402 21.2694C3.00968 21.2714 2.95834 21.2948 2.92119 21.3345C2.88403 21.3742 2.86408 21.4269 2.86567 21.4813L2.87551 21.7999C2.87636 21.827 2.88255 21.8536 2.89372 21.8783C2.90489 21.903 2.92083 21.9252 2.94062 21.9437C2.96041 21.9622 2.98365 21.9766 3.00902 21.9861C3.03439 21.9955 3.06139 21.9999 3.08846 21.9989L16.4562 21.5214C16.5076 21.5199 16.5566 21.4989 16.5933 21.4628C16.63 21.4267 16.6518 21.378 16.6542 21.3266L16.6702 21.0204C16.6718 20.992 16.6674 20.9635 16.6573 20.9368C16.6472 20.9101 16.6316 20.8859 16.6115 20.8656C16.5917 20.8451 16.5677 20.829 16.5412 20.8184C16.5147 20.8078 16.4863 20.803 16.4578 20.8042L3.06402 21.2694Z" fill="#371A45"/>
<path d="M10.8625 22.0462C10.8177 22.0462 10.7745 22.0291 10.7417 21.9984C10.709 21.9677 10.6891 21.9257 10.6861 21.8809L10.6189 20.8626L8.33424 15.0225C8.26651 14.8492 8.14587 14.7016 7.98946 14.6008C7.83306 14.4999 7.64884 14.4509 7.463 14.4608L0.743444 14.8162C0.710787 14.8178 0.678914 14.8268 0.650142 14.8423C0.621371 14.8578 0.596424 14.8796 0.577116 14.906L0.397209 15.1505C0.373945 15.1823 0.359583 15.2197 0.355605 15.2589C0.351627 15.2981 0.358177 15.3376 0.37458 15.3734L2.99329 21.1034C3.00295 21.1245 3.00835 21.1473 3.00919 21.1705C3.01003 21.1938 3.00628 21.2169 2.99817 21.2387C2.99006 21.2605 2.97774 21.2804 2.96191 21.2974C2.94609 21.3144 2.92707 21.3282 2.90594 21.3378C2.88481 21.3475 2.86199 21.3529 2.83877 21.3537C2.81555 21.3545 2.7924 21.3508 2.77063 21.3427C2.74886 21.3346 2.7289 21.3223 2.71189 21.3064C2.69488 21.2906 2.68115 21.2716 2.6715 21.2505L0.0519931 15.5208C0.00943136 15.4277 -0.00747183 15.3248 0.00303131 15.2229C0.0135345 15.1211 0.051063 15.0238 0.111736 14.9413L0.291642 14.6967C0.341928 14.6281 0.406844 14.5716 0.481681 14.5312C0.556518 14.4908 0.639401 14.4676 0.724322 14.4632L7.44388 14.1077C7.70407 14.0938 7.96203 14.1623 8.18105 14.3035C8.40006 14.4446 8.56897 14.6513 8.66373 14.894L10.9584 20.7595C10.9648 20.7764 10.9686 20.7942 10.9697 20.8122L11.0387 21.8576C11.0403 21.8808 11.0372 21.9041 11.0298 21.9261C11.0223 21.9481 11.0106 21.9684 10.9953 21.9859C10.98 22.0034 10.9614 22.0176 10.9405 22.0279C10.9197 22.0382 10.897 22.0443 10.8739 22.0458C10.8705 22.0461 10.8665 22.0462 10.8625 22.0462Z" fill="#371A45"/>
<g opacity="0.25">
<path d="M10.8509 21.8985L3.09444 22.1757C3.04408 22.1775 2.99386 22.1693 2.94667 22.1516C2.89948 22.1339 2.85625 22.1071 2.81945 22.0727C2.78266 22.0382 2.75302 21.9969 2.73225 21.951C2.71148 21.9051 2.69999 21.8555 2.69842 21.8051L2.68858 21.4868C2.68669 21.4276 2.69865 21.3688 2.72349 21.3151C2.74834 21.2613 2.7854 21.2141 2.83171 21.1771L2.52734 20.5109C6.12547 20.4204 8.38844 19.1133 8.14291 15.7802V14.7944L8.51279 14.9933L10.7935 20.824H10.8091C10.8179 21.0374 10.826 21.2397 10.8329 21.4237C10.8394 21.5896 10.8451 21.7397 10.8498 21.869C10.8503 21.8788 10.8503 21.8886 10.8509 21.8985Z" fill="#371A45"/>
</g>
<path d="M3.89928 22.4104C3.89928 22.4104 4.23759 21.125 5.60035 21.3468C6.96311 21.5685 7.28197 22.9221 6.32518 23.415C5.3684 23.9079 2.32402 23.8306 2.71054 21.4144C2.71054 21.4149 2.8264 22.1204 3.89928 22.4104Z" fill="#F8F8F8"/>
<g opacity="0.25">
<path d="M6.32494 23.4153C5.66392 23.7558 4.00663 23.8241 3.17273 23.0373C3.9805 23.2535 4.91182 23.1481 5.36781 22.9128C6.01276 22.5806 6.07816 21.8575 5.6345 21.3535C6.96762 21.5928 7.27369 22.9265 6.32494 23.4153Z" fill="#371A45"/>
</g>
<path d="M5.0724 23.864C4.43096 23.864 3.73227 23.7187 3.2248 23.3511C2.8014 23.0443 2.33262 22.4537 2.50415 21.3823C2.51198 21.3333 2.53699 21.2886 2.57473 21.2564C2.61246 21.2241 2.66044 21.2063 2.71008 21.2062C2.75968 21.2061 2.80771 21.2236 2.84559 21.2556C2.88348 21.2876 2.90876 21.332 2.91692 21.3809C2.92065 21.4005 3.02215 21.8834 3.76848 22.1504C3.98527 21.6389 4.56052 20.9656 5.63396 21.1406C6.40721 21.2668 6.97126 21.755 7.07094 22.3845C7.15015 22.8874 6.90122 23.3536 6.42102 23.601C6.11065 23.7611 5.61178 23.864 5.0724 23.864ZM2.91126 22.123C2.97564 22.4917 3.16234 22.7895 3.4701 23.0124C4.26486 23.5881 5.65727 23.5244 6.22946 23.2296C6.54888 23.065 6.70909 22.7736 6.65784 22.45C6.60398 22.1098 6.28592 21.6709 5.56663 21.5536C4.40482 21.3639 4.11335 22.4186 4.10147 22.4635C4.09446 22.4902 4.08224 22.5152 4.06552 22.5372C4.0488 22.5591 4.0279 22.5775 4.00404 22.5913C3.98018 22.6051 3.95382 22.6141 3.92648 22.6177C3.89914 22.6213 3.87136 22.6194 3.84474 22.6122C3.40753 22.494 3.11131 22.31 2.91126 22.123Z" fill="#371A45"/>
<path d="M19.519 19.3477C19.4424 19.9961 19.1618 20.6252 18.7588 20.9343L16.8475 20.2936C16.8475 20.2936 16.3958 20.8154 15.2581 20.6994C14.1203 20.5834 13.5982 19.4311 13.5982 19.4311C13.5982 19.4311 13.1128 20.4389 12.5254 20.0331C12.3653 19.9223 12.2878 19.786 12.2627 19.6434C12.2296 19.4578 12.2836 19.2612 12.3573 19.096C12.4464 18.9 12.5717 18.7225 12.7266 18.5729L13.8156 17.5007C14.7336 16.2928 16.0192 17.1626 16.9081 17.6746H19.0827C19.4743 18.0626 19.5944 18.7141 19.519 19.3477Z" fill="#F8F8F8"/>
<path d="M18.7588 21.1436C18.7362 21.1434 18.7137 21.1396 18.6923 21.1323L16.8964 20.5303C16.6868 20.6969 16.1652 21.0019 15.2366 20.9074C14.383 20.8203 13.8504 20.2219 13.5927 19.8386C13.4527 20.0291 13.2431 20.2459 12.9817 20.3152C12.7854 20.3673 12.5866 20.3288 12.4066 20.2045C12.0256 19.9411 11.9404 19.5169 12.1665 19.0101C12.2663 18.7903 12.4066 18.5912 12.5799 18.4232L13.6586 17.3616C14.63 16.0994 15.9598 16.8776 16.8408 17.393L16.9646 17.4651H19.0825C19.1376 17.4651 19.1904 17.4869 19.2296 17.5257C19.5998 17.8921 19.7871 18.4996 19.7435 19.1924C19.6933 19.9901 19.3566 20.7389 18.8861 21.0999C18.8496 21.1281 18.8048 21.1435 18.7588 21.1436ZM16.8475 20.0848C16.8701 20.0849 16.8925 20.0887 16.9139 20.0961L18.7129 20.6992C19.0447 20.3866 19.2867 19.7889 19.3259 19.167C19.3598 18.6339 19.2381 18.1723 18.9913 17.8842H16.908C16.8714 17.8843 16.8354 17.8746 16.8037 17.8563C16.7471 17.8237 16.6888 17.7897 16.6292 17.7545C15.553 17.1248 14.6747 16.7157 13.9815 17.6274C13.9755 17.6354 13.9689 17.643 13.9617 17.65L12.8725 18.7219C12.7365 18.8533 12.6263 19.0091 12.5477 19.1812C12.3385 19.65 12.5603 19.8035 12.6438 19.8612C12.7481 19.9334 12.8248 19.9245 12.8738 19.9119C13.1151 19.8485 13.3472 19.4686 13.4094 19.3405C13.4268 19.3047 13.4539 19.2746 13.4877 19.2538C13.5215 19.2329 13.5605 19.222 13.6002 19.2225C13.64 19.223 13.6787 19.2348 13.712 19.2566C13.7452 19.2783 13.7716 19.309 13.788 19.3452C13.7927 19.3553 14.2776 20.3899 15.2787 20.492C16.2797 20.594 16.6853 20.1616 16.6892 20.1573C16.7088 20.1345 16.7331 20.1163 16.7604 20.1037C16.7877 20.0912 16.8174 20.0848 16.8475 20.0848Z" fill="#371A45"/>
<path d="M13.4146 19.3306L14.1922 18.3513L13.781 19.5321C13.7718 19.5584 13.7576 19.5827 13.7391 19.6035C13.7206 19.6243 13.6981 19.6412 13.6731 19.6533C13.648 19.6655 13.6208 19.6725 13.593 19.6741C13.5652 19.6758 13.5373 19.6719 13.511 19.6627C13.3746 19.6181 13.3241 19.4408 13.4146 19.3306Z" fill="#371A45"/>
<path d="M16.6566 20.2083L17.1495 19.6995L17.0382 20.3793L16.6566 20.2083Z" fill="#371A45"/>
<g opacity="0.25">
<path d="M19.519 19.3475C19.4424 19.9959 19.1618 20.625 18.7587 20.9341L16.8474 20.2933C16.8474 20.2933 16.3957 20.8152 15.258 20.6992C14.1203 20.5832 13.5981 19.4309 13.5981 19.4309C13.5981 19.4309 13.1127 20.4387 12.5254 20.0329C12.3653 19.9221 12.2878 19.7857 12.2626 19.6432L12.327 19.5788C12.327 19.5788 12.762 19.8687 13.2357 19.221C13.6996 18.5866 14.3027 18.0542 14.327 18.033C14.312 18.0701 13.8405 19.2484 14.7909 19.8005C15.7576 20.3611 16.9272 18.8244 16.9272 18.8244C16.9272 18.8244 17.623 19.4333 19.3048 19.3464C19.3761 19.3424 19.4477 19.3427 19.519 19.3475Z" fill="#371A45"/>
</g>
<path d="M13.9369 26.0041C14.5342 25.5741 15.4871 25.1418 16.2044 25.514C16.5356 25.7131 16.8219 25.9835 17.0716 26.2736C17.315 26.5561 17.526 26.8649 17.7005 27.1944C17.2653 26.7318 16.7953 26.3104 16.2432 26.0034C16.0357 25.8903 15.8187 25.8026 15.5793 25.7981C15.0828 25.8004 14.5921 26.0544 14.1913 26.336C13.9667 26.5017 13.7174 26.1793 13.9369 26.0041Z" fill="#371A45"/>
<path d="M17.017 31.5176C16.9697 31.5176 16.9238 31.501 16.8873 31.4708C16.8509 31.4405 16.8262 31.3984 16.8175 31.3519C16.8088 31.3053 16.8166 31.2572 16.8397 31.2158C16.8627 31.1744 16.8995 31.1424 16.9437 31.1253C16.997 31.1046 17.0727 31.0601 17.1134 30.9131C17.3214 30.1606 16.3666 28.1672 15.646 27.2418C14.8974 26.2806 14.295 26.3744 14.2698 26.3788C14.2438 26.3843 14.217 26.3846 14.1909 26.3798C14.1648 26.3749 14.1399 26.3649 14.1176 26.3503C14.0954 26.3358 14.0763 26.317 14.0613 26.295C14.0464 26.273 14.0359 26.2483 14.0306 26.2223C14.0197 26.1694 14.0303 26.1142 14.06 26.0691C14.0897 26.0239 14.1361 25.9923 14.189 25.9812C14.2238 25.9737 15.0489 25.8136 15.9669 26.9924C16.65 27.8695 17.7803 30.0263 17.5051 31.0213C17.44 31.2572 17.2967 31.424 17.0908 31.5038C17.0673 31.513 17.0423 31.5176 17.017 31.5176Z" fill="#371A45"/>
<path d="M15.7253 25.4483C15.7211 25.4523 15.7174 25.4567 15.714 25.4613C15.713 25.4627 15.7097 25.4681 15.7107 25.4663C15.7176 25.455 15.7344 25.4261 15.7414 25.4146C16.0447 24.9011 16.4076 24.4256 16.8136 23.9889C17.3737 23.3746 18.1672 22.9331 18.9999 22.852C19.2052 22.8386 19.4114 22.8494 19.6141 22.8844C19.4111 22.9 19.2133 22.9296 19.0231 22.9836C18.4574 23.1463 17.9638 23.4815 17.5438 23.8852C17.4039 24.0188 17.2603 24.1485 17.121 24.285C16.7757 24.6315 16.4801 25.0281 16.2158 25.4398C16.1921 25.4782 16.1228 25.5895 16.1005 25.6281L16.0814 25.6605L16.0712 25.6778C15.917 25.9512 15.5308 25.6963 15.7245 25.4487L15.7253 25.4483Z" fill="#371A45"/>
<path d="M19.3983 29.0803C19.3572 29.0802 19.3174 29.0656 19.286 29.0389C19.2546 29.0123 19.2337 28.9754 19.2269 28.9348C18.8836 26.8666 17.5914 25.1841 16.346 25.1841C16.3007 25.183 16.2575 25.1641 16.2259 25.1316C16.1942 25.0991 16.1765 25.0555 16.1765 25.0101C16.1765 24.9648 16.1942 24.9212 16.2259 24.8887C16.2575 24.8562 16.3007 24.8373 16.346 24.8362C17.7778 24.8362 19.194 26.6115 19.5701 28.8777C19.5777 28.9233 19.5668 28.9699 19.54 29.0075C19.5131 29.045 19.4725 29.0703 19.427 29.0779C19.4175 29.0795 19.4079 29.0803 19.3983 29.0803Z" fill="#371A45"/>
<path d="M19.0472 17.4688L20.2086 17.4815L19.1179 17.8808C18.7973 17.9749 18.7135 17.4871 19.0472 17.4688Z" fill="#371A45"/>
<path d="M20.9658 21.6302C19.8973 21.6302 18.7512 21.158 18.6779 21.1274C18.6275 21.1054 18.5878 21.0646 18.5674 21.0136C18.5469 20.9626 18.5473 20.9056 18.5685 20.8549C18.5897 20.8042 18.63 20.764 18.6807 20.7428C18.7314 20.7216 18.7884 20.7212 18.8394 20.7416C19.5296 21.0303 21.4668 21.6034 22.13 20.8013C22.1655 20.7593 22.2162 20.7331 22.271 20.7283C22.3257 20.7234 22.3802 20.7403 22.4226 20.7753C22.465 20.8104 22.4919 20.8607 22.4974 20.9154C22.503 20.9701 22.4868 21.0248 22.4523 21.0676C22.1021 21.4913 21.5452 21.6302 20.9658 21.6302Z" fill="#371A45"/>
<path d="M18.4368 17.6592L18.3867 16.718L18.8393 17.5448C18.8665 17.5947 18.8727 17.6534 18.8568 17.7079C18.8408 17.7624 18.8039 17.8084 18.7541 17.8358C18.6201 17.9134 18.4419 17.8125 18.4373 17.6592H18.4368Z" fill="#371A45"/>
<path d="M11.2577 18.4876C11.2921 18.1814 11.3458 17.8776 11.4186 17.5781C11.4909 17.2834 11.583 16.9907 11.7127 16.7175C11.6188 17.1577 11.6141 17.6022 11.6369 18.0468C11.6454 18.193 11.6574 18.3434 11.6754 18.4825C11.6997 18.7927 11.2407 18.7993 11.2568 18.4876H11.2577Z" fill="#371A45"/>
<g opacity="0.25">
<path d="M22.2913 20.9347C23.1954 24.0103 22.8074 26.3977 20.3388 27.6775L18.0686 30.6442C17.5029 31.3835 16.4635 31.58 15.6767 31.0825C14.9785 30.6412 14.3887 29.8173 14.0257 28.9485C14.0936 29.0031 14.162 29.0626 14.231 29.1272C16.5889 31.3307 16.3458 28.1414 16.3458 28.1414C18.6097 30.0973 17.4366 26.879 17.418 26.8268L18.256 27.4844C18.256 27.4844 18.4542 26.9625 20.2084 25.4257C21.9625 23.889 20.9333 22.0625 20.9333 22.0625C19.6865 22.309 18.256 21.3956 18.256 21.4229C18.256 21.4502 17.1206 21.2796 17.0771 21.3086C17.0337 21.3376 17.0673 20.3676 17.0673 20.3676L18.8619 20.9753L19.519 19.3476C19.9933 19.3407 21.0382 19.3363 21.0382 19.3363C22.2299 16.8428 20.0206 15.4772 20.0206 15.4772C17.3253 16.6631 14.0183 15.7991 13.8953 15.7642L15.868 14.1951C17.0777 14.1385 18.0606 14.2107 18.0606 14.2107L19.7619 14.1208C19.7619 14.1208 21.2087 14.5332 21.9817 15.9051C22.7546 17.277 22.9872 19.7001 22.2913 20.9347Z" fill="#371A45"/>
</g>
<g opacity="0.25">
<path d="M24.3217 13.9156L24.3036 13.9083C24.3096 13.9051 24.3217 13.9156 24.3217 13.9156Z" fill="#371A45"/>
</g>
<path d="M15.2603 15.7535C19.5445 15.7535 23.0175 12.2805 23.0175 7.99626C23.0175 3.71205 19.5445 0.239014 15.2603 0.239014C10.9761 0.239014 7.50305 3.71205 7.50305 7.99626C7.50305 12.2805 10.9761 15.7535 15.2603 15.7535Z" fill="#F8F8F8"/>
<g opacity="0.25">
<path d="M22.512 10.7507C20.9904 14.7562 16.5105 16.7695 12.5056 15.248C11.2725 14.7818 10.1794 14.0075 9.33044 12.9989C9.87391 13.387 10.4652 13.7033 11.0897 13.94C15.0951 15.4614 19.5745 13.4482 21.096 9.44328C22.132 6.71584 21.5287 3.7682 19.7736 1.68457C22.5726 3.68311 23.7907 7.38488 22.512 10.7507Z" fill="#371A45"/>
</g>
<path d="M8.05791 10.97C8.49195 11.9689 9.21938 13.0424 10.4177 14.0589C13.8507 16.3455 18.4748 15.462 20.4304 10.7084L20.1215 6.76898C19.957 6.16171 19.6207 5.58578 19.1597 5.06394C16.3311 1.86613 8.81329 0.700704 7.58087 6.89412C7.58087 6.89412 7.09117 8.74557 8.05791 10.97Z" fill="#371A45"/>
<g opacity="0.7">
<path d="M8.05792 10.97C8.49196 11.969 9.21939 13.0424 10.4178 14.0589C13.8507 16.3456 18.4748 15.462 20.4304 10.7084L20.1215 6.769C19.957 6.16173 19.6207 5.58581 19.1597 5.06396C20.197 10.4483 13.5836 15.9241 8.10612 10.9939L8.05792 10.97Z" fill="#111A28"/>
</g>
<path d="M14.9421 15.9277C14.7924 15.9277 14.6397 15.9226 14.484 15.9125C14.458 15.9114 14.4325 15.905 14.4089 15.8938C14.3854 15.8827 14.3644 15.8669 14.347 15.8475C14.3296 15.8282 14.3163 15.8055 14.3078 15.7809C14.2993 15.7563 14.2958 15.7302 14.2975 15.7043C14.2992 15.6783 14.3061 15.6529 14.3177 15.6296C14.3293 15.6063 14.3455 15.5856 14.3652 15.5686C14.3849 15.5516 14.4078 15.5387 14.4326 15.5307C14.4574 15.5227 14.4835 15.5197 14.5094 15.5219C16.4737 15.6504 18.1561 14.9363 19.5106 13.4C20.4366 12.35 20.8859 11.2525 20.9646 11.049L20.7996 6.19262C20.0396 4.46868 18.5014 3.08193 16.4648 2.28492C14.3798 1.46866 12.1189 1.42895 10.4171 2.17844C10.3698 2.19815 10.3166 2.19852 10.2691 2.17948C10.2215 2.16045 10.1833 2.12352 10.1627 2.07663C10.142 2.02974 10.1406 1.97662 10.1586 1.92868C10.1767 1.88074 10.2129 1.8418 10.2593 1.82021C12.0545 1.02953 14.4276 1.06699 16.607 1.92035C18.7548 2.76116 20.3764 4.23526 21.1734 6.07087C21.1833 6.09339 21.1887 6.11759 21.1895 6.14215L21.3571 11.0754C21.3579 11.1 21.3541 11.1246 21.3458 11.1477C21.3272 11.1998 20.8796 12.4362 19.8133 13.6493C18.8822 14.7086 17.2981 15.9275 14.9421 15.9277Z" fill="#371A45"/>
<path d="M14.2674 15.4544C12.9117 15.4544 11.5353 15.0326 10.3115 14.2174C10.2703 14.1888 10.2419 14.1452 10.2325 14.096C10.2231 14.0467 10.2334 13.9957 10.2612 13.954C10.289 13.9122 10.3321 13.8831 10.3812 13.8728C10.4303 13.8625 10.4814 13.8719 10.5237 13.899C12.2182 15.0277 14.2173 15.3613 16.0084 14.8143C17.8589 14.2486 19.3589 12.7807 20.2361 10.6771L19.932 6.80172C19.6265 5.69513 18.6647 4.60664 17.2916 3.8146C15.921 3.02324 14.2787 2.59848 12.7863 2.64849C11.2201 2.70133 8.48552 3.32738 7.76815 6.93173C7.75825 6.9815 7.72898 7.0253 7.68679 7.05349C7.64459 7.08168 7.59293 7.09195 7.54316 7.08205C7.49339 7.07215 7.44959 7.04288 7.4214 7.00068C7.39321 6.95849 7.38294 6.90682 7.39284 6.85705C7.95451 4.03581 9.91605 2.36245 12.7734 2.26605C16.1159 2.15392 19.6346 4.23484 20.3059 6.71913C20.309 6.73057 20.311 6.74227 20.3119 6.75409L20.6212 10.693C20.6235 10.723 20.6187 10.753 20.6074 10.7808C19.6881 13.0149 18.0945 14.5774 16.1201 15.1805C15.5195 15.3631 14.8951 15.4554 14.2674 15.4544Z" fill="#371A45"/>
<path d="M15.2635 15.9927C14.2923 15.9917 13.3294 15.8137 12.422 15.4674C8.30276 13.9024 6.22411 9.27742 7.78906 5.15813C8.54716 3.16241 10.0371 1.5815 11.9843 0.706411C13.9314 -0.16868 16.1029 -0.232722 18.0985 0.525373C22.2181 2.09044 24.2964 6.71517 22.7315 10.8348C21.9734 12.8304 20.4834 14.4113 18.5363 15.2864C17.5077 15.7509 16.3922 15.9916 15.2635 15.9927ZM15.2572 0.469817C14.1949 0.470898 13.1449 0.697595 12.1767 1.1349C10.3437 1.95851 8.94171 3.44653 8.22785 5.32491C6.75489 9.2024 8.71111 13.5553 12.5886 15.0283C14.4669 15.7418 16.5107 15.6812 18.3433 14.8576C20.176 14.034 21.5784 12.5459 22.2922 10.6677L22.5117 10.7511L22.2922 10.6677C23.7652 6.79018 21.809 2.43713 17.9315 0.964164C17.0775 0.638295 16.1713 0.470776 15.2572 0.469817Z" fill="#371A45"/>
<path d="M23.27 8.58493C23.2883 9.97598 22.5974 11.0968 21.5153 11.1109C20.4331 11.1249 19.5413 10.0089 19.5229 8.61786C19.5046 7.22681 20.367 6.08752 21.4491 6.07337C22.5311 6.05923 23.2517 7.19388 23.27 8.58493Z" fill="#F8F8F8"/>
<g opacity="0.25">
<path d="M21.515 11.1104C20.4332 11.1244 19.5411 10.0085 19.5236 8.61759C19.5178 8.17632 19.6002 7.7605 19.7508 7.39819C19.9301 8.57279 20.743 9.45535 21.7054 9.44301C22.4213 9.43328 22.966 8.94029 23.2475 8.20472C23.2612 8.32918 23.2689 8.45568 23.2702 8.58444C23.2879 9.97583 22.5976 11.0963 21.515 11.1104Z" fill="#371A45"/>
</g>
<path d="M21.4945 11.3459C20.9062 11.3459 20.3537 11.0596 19.9367 10.538C19.5279 10.0264 19.2976 9.34563 19.288 8.62091C19.2681 7.10257 20.2361 5.85443 21.446 5.83847C22.0361 5.83236 22.573 6.12519 22.9509 6.66785C23.2982 7.16627 23.4949 7.84607 23.5046 8.58187C23.5254 10.1679 22.6899 11.3303 21.5182 11.3456L21.4945 11.3459ZM21.4693 6.30804H21.4522C20.5018 6.3206 19.7412 7.35523 19.7578 8.61457C19.766 9.23542 19.9598 9.81395 20.3036 10.2446C20.6337 10.6576 21.0629 10.8818 21.5122 10.8758C22.4119 10.8645 23.0524 9.90187 23.035 8.58798C23.0267 7.94507 22.86 7.35851 22.5657 6.93601C22.3653 6.64884 22.013 6.30804 21.4693 6.30804Z" fill="#371A45"/>
<path d="M22.1695 10.9466C21.2225 10.9466 20.4409 9.88913 20.4234 8.57841C20.4153 7.95202 20.58 7.35856 20.8873 6.90721C21.2089 6.43425 21.648 6.1705 22.1239 6.16439C22.2206 6.16329 22.3172 6.17339 22.4116 6.19448C22.4199 6.1963 22.428 6.19865 22.436 6.2015C22.4832 6.21852 22.5222 6.25307 22.5447 6.29801C22.5672 6.34295 22.5716 6.39483 22.5569 6.4429C22.5422 6.49096 22.5096 6.53154 22.4658 6.55622C22.422 6.58089 22.3704 6.58778 22.3217 6.57546C22.2583 6.56178 22.1935 6.55521 22.1286 6.55588C21.7846 6.56018 21.4586 6.76317 21.211 7.12728C20.9488 7.51289 20.8082 8.02647 20.815 8.57321C20.8297 9.66984 21.4361 10.5551 22.1691 10.5551H22.1815C22.2795 10.5542 22.3765 10.5363 22.4684 10.5023C22.4926 10.4928 22.5184 10.4882 22.5444 10.4888C22.5704 10.4894 22.596 10.4951 22.6197 10.5057C22.6435 10.5163 22.6648 10.5315 22.6826 10.5504C22.7004 10.5694 22.7143 10.5917 22.7234 10.616C22.7325 10.6404 22.7366 10.6663 22.7356 10.6922C22.7345 10.7182 22.7284 10.7437 22.7174 10.7672C22.7064 10.7908 22.6908 10.8119 22.6716 10.8294C22.6523 10.8469 22.6298 10.8603 22.6053 10.869C22.4713 10.9187 22.3297 10.9449 22.1867 10.9465L22.1695 10.9466Z" fill="#371A45"/>
<g opacity="0.5">
<path d="M13.2958 3.86094C10.9957 5.29465 9.659 7.28165 9.42162 9.8998C9.40261 10.1097 9.10548 10.1384 9.04709 9.936C8.08895 6.61521 8.55976 3.74451 13.1839 3.5069C13.3822 3.49638 13.4642 3.75583 13.2958 3.86094Z" fill="#CEB7FF"/>
</g>
<g opacity="0.5">
<path d="M17.7709 8.71158L17.7298 8.71497C17.5485 8.72972 17.3683 8.67649 17.2241 8.56563C17.08 8.45478 16.9822 8.29425 16.95 8.11529C16.9424 8.07289 16.9345 8.03182 16.9262 7.99207C16.8456 7.59729 17.0959 7.21134 17.4909 7.1301L17.5219 7.12377C17.7002 7.08726 17.8858 7.11847 18.0423 7.21131C18.1989 7.30414 18.3152 7.45195 18.3687 7.62592C18.3852 7.67872 18.4007 7.73152 18.4152 7.78433C18.4444 7.88822 18.4502 7.99726 18.4323 8.10366C18.4143 8.21006 18.3731 8.31118 18.3115 8.39978C18.25 8.48839 18.1696 8.56228 18.0761 8.61619C17.9826 8.67009 17.8784 8.70266 17.7709 8.71158Z" fill="#CEB7FF"/>
</g>
<g opacity="0.5">
<path d="M16.272 13.1523C16.1878 13.102 16.1146 13.0352 16.0568 12.956C15.9989 12.8768 15.9576 12.7868 15.9353 12.6913C15.913 12.5958 15.9102 12.4968 15.927 12.4001C15.9438 12.3035 15.9799 12.2112 16.0331 12.1289C16.3828 11.5907 16.6306 10.9929 16.7642 10.3652C16.8493 9.96658 17.2362 9.70894 17.6347 9.79448L17.7373 9.81643C18.1394 9.90265 18.3944 10.3042 18.2952 10.7034C18.0482 11.6974 17.5841 12.4767 17.2409 12.9528C17.1338 13.1014 16.9748 13.2043 16.7953 13.2413C16.6159 13.2782 16.4292 13.2464 16.272 13.1523Z" fill="#CEB7FF"/>
</g>
<g opacity="0.25">
<path d="M12.4139 24.7531C12.4139 24.7531 14.9847 25.4742 16.9851 23.9858L16.0588 25.3678L15.7287 25.586C15.0315 25.6249 14.4659 25.7834 14.1123 26.1349C13.4044 25.8755 12.8188 25.4426 12.4139 24.7531Z" fill="#371A45"/>
</g>
<g opacity="0.25">
<path d="M11.5931 17.1599C11.5931 17.1599 10.7249 17.935 10.2692 19.4841L10.8624 20.7674L11.0702 20.627C11.0702 20.627 11.1668 19.0254 11.1427 18.9964C11.1186 18.9675 11.4009 18.6702 11.4663 18.2425C11.5317 17.8148 11.527 17.5514 11.527 17.5514" fill="#371A45"/>
</g>
<path d="M7.04222 26.045L7.39298 26.8466L6.71024 26.2993C6.6881 26.2817 6.66965 26.2599 6.65595 26.2351C6.64226 26.2104 6.63358 26.1832 6.63043 26.155C6.62728 26.1269 6.6297 26.0985 6.63758 26.0713C6.64545 26.0441 6.65861 26.0187 6.6763 25.9967C6.77225 25.8705 6.9818 25.8998 7.04154 26.045H7.04222Z" fill="#371A45"/>
<path d="M21.1699 15.0714C21.1307 15.0714 21.0923 15.0603 21.0591 15.0395C21.0259 15.0186 20.9992 14.9889 20.982 14.9536C20.9649 14.9183 20.9581 14.8789 20.9623 14.84C20.9665 14.801 20.9815 14.7639 21.0058 14.7331C21.9976 13.4726 23.5245 13.6912 23.5891 13.7011C23.6431 13.7103 23.6913 13.7404 23.7233 13.7849C23.7553 13.8293 23.7687 13.8846 23.7604 13.9387C23.7521 13.9929 23.7229 14.0416 23.6791 14.0745C23.6352 14.1073 23.5802 14.1217 23.5259 14.1144C23.4704 14.1061 22.1723 13.9268 21.3343 14.9916C21.3148 15.0165 21.2898 15.0367 21.2613 15.0505C21.2329 15.0643 21.2016 15.0715 21.1699 15.0714Z" fill="#371A45"/>
<g opacity="0.25">
<path d="M21.2526 13.115C21.2526 13.115 20.0634 13.6625 21.7306 15.4777C21.1316 14.8645 20.51 14.3869 19.8484 14.1498L20.769 13.0574" fill="#371A45"/>
</g>
<path d="M6.28726 16.7664C6.31334 16.8232 6.33579 16.8816 6.35448 16.9412C6.11121 17.1397 5.63032 17.4183 5.05474 17.6815C4.47915 17.9446 3.95425 18.1265 3.64491 18.1808C3.61204 18.1276 3.58256 18.0725 3.55665 18.0156L3.55292 18.0076C3.54152 17.9821 3.53085 17.9566 3.52089 17.9308C3.49785 17.8714 3.47865 17.8106 3.46341 17.7487C3.46341 17.7462 3.46217 17.7437 3.4616 17.7412C3.38069 17.4039 3.41902 17.049 3.57008 16.7368C3.72115 16.4246 3.97563 16.1743 4.29031 16.0284C4.60499 15.8826 4.96047 15.8501 5.29636 15.9366C5.63225 16.0231 5.92784 16.2232 6.13293 16.5029C6.13745 16.509 6.14187 16.5151 6.14617 16.5214C6.18302 16.5734 6.2165 16.6277 6.24642 16.6839C6.25773 16.7051 6.26905 16.7266 6.27889 16.7484C6.28172 16.7544 6.28455 16.7603 6.28726 16.7664Z" fill="#CEB7FF"/>
<path d="M6.41799 17.5205C6.39819 17.7481 6.32673 17.9682 6.20904 18.164C6.09135 18.3598 5.93053 18.5262 5.73884 18.6505C5.54715 18.7748 5.32962 18.8537 5.10283 18.8812C4.87603 18.9088 4.64595 18.8842 4.43008 18.8094C4.29155 18.7613 4.16077 18.6933 4.04187 18.6075C4.40972 18.5134 4.8347 18.3621 5.27428 18.161C5.71387 17.96 6.10615 17.7373 6.41799 17.5205Z" fill="#CEB7FF"/>
<path d="M6.35448 16.941C6.11121 17.1396 5.63033 17.4183 5.05486 17.6813C4.47938 17.9444 3.95415 18.1263 3.6448 18.1807C3.61202 18.1275 3.58254 18.0723 3.55654 18.0155L3.55292 18.0074C3.54161 17.982 3.53029 17.9564 3.5209 17.9307C3.49789 17.8713 3.4787 17.8104 3.46342 17.7485C3.46274 17.7461 3.46218 17.7436 3.46161 17.7411C3.39067 17.4447 3.41156 17.1337 3.5215 16.8494C3.63143 16.5651 3.82522 16.321 4.07714 16.1494C3.90729 16.4137 3.82422 16.7245 3.83953 17.0383C3.84419 17.1307 3.85745 17.2225 3.87913 17.3125C3.87913 17.315 3.88037 17.3174 3.88094 17.3199C3.88151 17.3224 3.88286 17.3273 3.88433 17.332C3.96082 17.59 4.2386 17.698 4.50665 17.6736C5.0174 17.6274 6.12354 17.0295 6.35889 16.8914C6.37541 16.9312 6.34181 16.9008 6.35448 16.941Z" fill="#CEB7FF"/>
<path d="M5.27428 18.161C5.71387 17.96 6.10615 17.7373 6.41799 17.5205C6.41267 17.5816 6.40356 17.6423 6.39072 17.7023C6.15085 17.8782 5.76727 18.0958 5.32034 18.3002C4.89229 18.4961 4.49311 18.6397 4.20537 18.7103C4.1487 18.6796 4.09409 18.6453 4.04187 18.6075C4.40972 18.5134 4.8347 18.3621 5.27428 18.161Z" fill="#CEB7FF"/>
<path d="M6.27889 16.7483C6.28172 16.7543 6.28455 16.7596 6.28727 16.7663C6.31334 16.8231 6.33579 16.8815 6.35448 16.9411C6.11121 17.1396 5.63032 17.4181 5.05474 17.6813C4.47915 17.9445 3.95426 18.1263 3.64491 18.1806C3.61204 18.1275 3.58256 18.0723 3.55665 18.0154L3.55292 18.0074C3.84642 17.9735 4.38128 17.7975 4.96727 17.5294C5.57703 17.2506 6.075 16.9488 6.27889 16.7483Z" fill="#CEB7FF"/>
<path d="M3.41962 17.5176L3.42437 17.4164C3.62905 17.4262 4.16357 17.2539 4.72422 16.9978C5.39304 16.6923 5.82459 16.3994 5.90527 16.2686L5.99137 16.3217C5.88467 16.4947 5.39236 16.8034 4.76631 17.0899C4.18337 17.3563 3.64218 17.5281 3.41962 17.5176Z" fill="#CEB7FF"/>
<path d="M3.49239 17.0065L3.47711 16.9065C3.70703 16.8713 4.10554 16.7326 4.51695 16.5444C4.94804 16.3472 5.3203 16.1302 5.49003 15.978L5.55791 16.0532C5.38186 16.2116 4.99919 16.4354 4.55938 16.6366C4.13971 16.8282 3.73158 16.9701 3.49239 17.0065Z" fill="#CEB7FF"/>
<path d="M3.46161 17.7917V17.6905C3.69651 17.6905 4.24878 17.5102 4.83591 17.2415C5.45189 16.9598 5.9683 16.6438 6.09186 16.4731L6.17389 16.5324C6.03902 16.7188 5.51831 17.0407 4.87812 17.3336C4.26949 17.612 3.71348 17.7918 3.46161 17.7917Z" fill="#CEB7FF"/>
<path d="M4.432 18.8347L4.43008 18.8096L4.41876 18.787L4.4234 18.7845H4.42872C4.63171 18.769 5.01834 18.6421 5.41311 18.4613C5.81072 18.2795 6.14982 18.0766 6.29839 17.9307L6.3338 17.9669C6.18139 18.1161 5.83663 18.3232 5.43427 18.5073C5.02761 18.6931 4.6437 18.8185 4.432 18.8347Z" fill="#CEB7FF"/>
<path d="M6.41799 17.5205C6.39496 17.7851 6.30217 18.0389 6.14908 18.256C5.99599 18.473 5.78807 18.6456 5.54653 18.7561C5.30499 18.8666 5.03847 18.911 4.77414 18.8849C4.50982 18.8589 4.25714 18.7631 4.04187 18.6075C4.40972 18.5134 4.8347 18.3621 5.27428 18.161C5.71387 17.96 6.10615 17.7373 6.41799 17.5205Z" fill="#CEB7FF"/>
<path d="M7.15037 16.6055C7.24191 16.8054 6.94455 17.1546 6.41796 17.5206C6.10612 17.7374 5.71384 17.9601 5.27425 18.1612C4.83467 18.3622 4.40969 18.5135 4.04184 18.6076C3.42054 18.7668 2.96195 18.7633 2.87041 18.5634C2.78736 18.3817 3.02486 18.0769 3.46342 17.7487C3.47866 17.8106 3.49786 17.8715 3.5209 17.9309C3.39972 18.0309 3.33987 18.1101 3.36114 18.1559C3.38241 18.2018 3.48481 18.2089 3.64491 18.1808C3.95426 18.1265 4.47972 17.9446 5.05474 17.6815C5.62977 17.4184 6.11121 17.1398 6.35448 16.9413C6.48042 16.8384 6.54254 16.7571 6.52115 16.7104C6.49977 16.6636 6.40133 16.6577 6.24643 16.684C6.21651 16.6277 6.18303 16.5734 6.14618 16.5214C6.6816 16.4043 7.06732 16.4238 7.15037 16.6055Z" fill="#CEB7FF"/>
<path d="M3.51164 17.9065C3.5147 17.9146 3.51775 17.9228 3.52092 17.9309C3.39974 18.0308 3.33988 18.1099 3.36116 18.1559C3.38243 18.2018 3.48494 18.2088 3.64493 18.1808C3.85007 18.1448 4.15048 18.0526 4.49739 17.9177C4.49178 17.9458 4.49178 17.9748 4.49739 18.0029C4.36343 18.0532 4.23364 18.0976 4.11054 18.1355C3.57523 18.3 3.29587 18.2978 3.26328 18.226C3.24416 18.184 3.29972 18.0783 3.51164 17.9065Z" fill="#CEB7FF"/>
<path d="M3.47132 17.8335L3.48411 17.8495C3.39312 17.9184 3.30738 17.9941 3.2276 18.0757C3.27524 18.0064 3.35636 17.9258 3.47132 17.8335Z" fill="#CEB7FF"/>
<path d="M3.49794 17.8663L3.48456 17.8496C3.48645 17.8479 3.4887 17.8464 3.49096 17.8447L3.49794 17.8663Z" fill="#CEB7FF"/>
<path d="M3.22805 18.0764C3.1786 18.1491 3.16593 18.2098 3.1889 18.2602C3.21187 18.3105 3.26403 18.3364 3.33701 18.348C3.52733 18.3782 3.85489 18.2999 4.13459 18.2139C4.26121 18.1751 4.39484 18.1291 4.53243 18.0774C4.5589 18.1114 4.59828 18.137 4.64919 18.1566C4.44553 18.2344 4.2482 18.3001 4.0632 18.3518C3.40377 18.5363 3.11728 18.4867 3.07213 18.3884C3.04712 18.3334 3.08322 18.2286 3.22805 18.0764Z" fill="#CEB7FF"/>
<path d="M5.24776 18.1734C4.8178 18.3685 4.40265 18.5153 4.04227 18.6076C3.42109 18.7668 2.96239 18.7633 2.87096 18.5632C2.78791 18.3822 3.02541 18.0767 3.46397 17.7485C3.4685 17.7667 3.47336 17.7849 3.47857 17.803L3.45356 17.7703C3.19898 17.9651 2.91328 18.2363 2.99837 18.4218C3.03118 18.4935 3.10891 18.5323 3.21176 18.5486C3.4539 18.5867 3.83408 18.5006 4.08584 18.4303C4.32475 18.3623 4.55993 18.2819 4.79041 18.1894C4.91171 18.2047 5.06672 18.1991 5.24776 18.1734Z" fill="#CEB7FF"/>
<path d="M4.53244 18.0774C4.39474 18.1291 4.26088 18.1751 4.13461 18.2139C3.85491 18.2999 3.52734 18.3782 3.33703 18.348C3.26404 18.3366 3.21132 18.309 3.18891 18.2601C3.16651 18.2113 3.17862 18.149 3.22806 18.0764C3.30785 17.9947 3.39359 17.9191 3.48457 17.8501L3.49736 17.8661C3.502 17.8797 3.50675 17.8933 3.51161 17.907C3.29969 18.0788 3.24413 18.1846 3.26337 18.2264C3.29618 18.2983 3.57532 18.3005 4.11062 18.1359C4.23373 18.098 4.36351 18.0537 4.49748 18.0033C4.50009 18.0163 4.50419 18.0289 4.5097 18.041C4.51577 18.054 4.52341 18.0662 4.53244 18.0774Z" fill="#CEB7FF"/>
<path d="M3.4846 17.8497C3.39361 17.9186 3.30787 17.9943 3.22809 18.076C3.27527 18.0061 3.3564 17.9256 3.47181 17.8333L3.4846 17.8497Z" fill="#CEB7FF"/>
<path d="M3.49738 17.8655L3.52295 17.8974C3.5191 17.9003 3.51537 17.9034 3.51163 17.9064C3.50677 17.8929 3.50201 17.8793 3.49738 17.8655Z" fill="#CEB7FF"/>
<path d="M6.05941 17.3336C5.79102 17.5016 5.4673 17.6738 5.12322 17.8314C4.92317 17.9229 4.7238 18.0061 4.53247 18.0777C4.52346 18.0664 4.51586 18.0541 4.50984 18.041C4.50434 18.0289 4.50023 18.0163 4.49762 18.0033C4.68895 17.9319 4.88877 17.8487 5.08927 17.7571C5.43019 17.601 5.75063 17.4306 6.01585 17.2643C6.49039 16.9668 6.67109 16.7541 6.63817 16.6825C6.61848 16.6396 6.49843 16.6125 6.21952 16.6642L6.2082 16.6036L6.20447 16.5836C6.35043 16.5565 6.46471 16.5477 6.54855 16.5577C6.63511 16.5681 6.6892 16.5983 6.71217 16.6482C6.79375 16.825 6.40191 17.1186 6.05941 17.3336Z" fill="#CEB7FF"/>
<path d="M4.78985 18.1894C4.55936 18.2819 4.32418 18.3623 4.08527 18.4303C3.8334 18.5006 3.45334 18.5867 3.2112 18.5486C3.10835 18.5323 3.03016 18.4935 2.9978 18.4218C2.91271 18.2363 3.19841 17.9651 3.453 17.7703L3.478 17.803C3.48208 17.817 3.48615 17.831 3.49067 17.8448C3.48852 17.8464 3.48637 17.8479 3.48456 17.8495L3.47178 17.8335C3.35637 17.9258 3.27524 18.0064 3.22806 18.0762C3.08323 18.2284 3.04702 18.3332 3.07214 18.3878C3.1174 18.4862 3.40378 18.5357 4.06321 18.3513C4.2482 18.2996 4.44565 18.2338 4.6492 18.1561C4.69462 18.1727 4.74182 18.1838 4.78985 18.1894Z" fill="#CEB7FF"/>
<path d="M3.47132 17.8335L3.48411 17.8495C3.39312 17.9184 3.30738 17.9941 3.2276 18.0757C3.27524 18.0064 3.35636 17.9258 3.47132 17.8335Z" fill="#CEB7FF"/>
<path d="M3.47803 17.803L3.50281 17.8353L3.4907 17.8448C3.48617 17.8314 3.48267 17.817 3.47803 17.803Z" fill="#CEB7FF"/>
<path d="M6.25477 17.4376C5.9564 17.6356 5.59353 17.8336 5.20532 18.0117C5.06592 18.0755 4.92675 18.1349 4.78939 18.1894C4.74136 18.1839 4.69416 18.1727 4.64874 18.1562C4.81994 18.091 4.99554 18.0175 5.17138 17.9371C5.55608 17.7614 5.91454 17.565 6.20963 17.3693C6.78035 16.9909 6.93016 16.7417 6.88524 16.6433C6.86023 16.5887 6.75772 16.5475 6.54862 16.5573C6.43419 16.5642 6.32043 16.5795 6.20827 16.6032L6.18564 16.6078L6.16901 16.5276C6.48277 16.4623 6.87483 16.4236 6.95969 16.6091C7.07046 16.8502 6.56593 17.2317 6.25477 17.4376Z" fill="#CEB7FF"/>
<path d="M7.15037 16.6055C7.24191 16.8054 6.94455 17.1546 6.41796 17.5206C6.10612 17.7374 5.71384 17.9601 5.27425 18.1612C4.83467 18.3622 4.40969 18.5135 4.04184 18.6076C3.42054 18.7668 2.96195 18.7633 2.87041 18.5634C2.78736 18.3817 3.02486 18.0769 3.46342 17.7487C3.47866 17.8106 3.49786 17.8715 3.5209 17.9309C3.39972 18.0309 3.33987 18.1101 3.36114 18.1559C3.38241 18.2018 3.48481 18.2089 3.64491 18.1808C3.95426 18.1265 4.47972 17.9446 5.05474 17.6815C5.62977 17.4184 6.11121 17.1398 6.35448 16.9413C6.48042 16.8384 6.54254 16.7571 6.52115 16.7104C6.49977 16.6636 6.40133 16.6577 6.24643 16.684C6.21651 16.6277 6.18303 16.5734 6.14618 16.5214C6.6816 16.4043 7.06732 16.4238 7.15037 16.6055Z" fill="#CEB7FF"/>
<g opacity="0.41">
<path d="M6.35491 16.9463C6.32662 16.9689 6.29506 16.9936 6.26055 17.0187C6.24629 16.9792 6.23034 16.94 6.21268 16.9013C6.20986 16.8953 6.20703 16.8899 6.20431 16.8834C6.19405 16.8614 6.18323 16.8399 6.17184 16.8189C6.14192 16.7626 6.10844 16.7082 6.07159 16.6562C6.06729 16.6501 6.06276 16.644 6.05835 16.6379C5.91444 16.4418 5.72506 16.2836 5.50649 16.1768C5.28793 16.0701 5.04672 16.0181 4.80359 16.0252C4.56047 16.0323 4.32271 16.0983 4.11074 16.2176C3.89878 16.3369 3.71896 16.5059 3.58673 16.71C3.69298 16.5033 3.84574 16.3241 4.03299 16.1864C4.22024 16.0488 4.43688 15.9564 4.66587 15.9167C4.89486 15.8769 5.12994 15.8908 5.35264 15.9573C5.57534 16.0238 5.77957 16.1411 5.94927 16.2999C6.0172 16.3633 6.07899 16.4329 6.13382 16.508C6.13846 16.5141 6.14276 16.5203 6.14717 16.5265C6.18401 16.5785 6.21749 16.6328 6.24742 16.689C6.25874 16.7102 6.27005 16.7318 6.27978 16.7535C6.28272 16.7595 6.28555 16.7655 6.28815 16.7716C6.31401 16.8284 6.3363 16.8867 6.35491 16.9463Z" fill="#CEB7FF"/>
</g>
<path d="M6.2873 16.7664C6.31338 16.8232 6.33583 16.8815 6.35451 16.9412C6.11124 17.1396 5.63036 17.4182 5.05477 17.6814C4.47919 17.9446 3.95429 18.1264 3.64494 18.1807C3.61207 18.1276 3.5826 18.0724 3.55669 18.0155C3.54379 17.9875 3.53187 17.9592 3.52093 17.9308C3.38268 17.5739 3.38594 17.1777 3.53005 16.8232C3.67416 16.4686 3.94824 16.1825 4.29626 16.0233C4.64428 15.8641 5.03997 15.8438 5.40245 15.9666C5.76493 16.0894 6.06684 16.3459 6.24645 16.6839C6.26086 16.7108 6.27448 16.7383 6.2873 16.7664Z" fill="#CEB7FF"/>
<path d="M6.16551 16.826C6.1891 16.8774 6.20943 16.9304 6.22638 16.9844C6.0062 17.1639 5.57091 17.4159 5.05054 17.654C4.53017 17.8921 4.05484 18.0567 3.77502 18.1058C3.74536 18.0577 3.71869 18.0077 3.69514 17.9563L3.69186 17.949C3.68145 17.9263 3.67179 17.9032 3.66289 17.8796C3.64208 17.8258 3.6247 17.7708 3.61084 17.7149C3.61084 17.7126 3.60971 17.7103 3.60926 17.7081C3.536 17.4029 3.57063 17.0819 3.70729 16.7994C3.84394 16.5169 4.07418 16.2904 4.35889 16.1584C4.64359 16.0265 4.96521 15.9971 5.26909 16.0754C5.57298 16.1537 5.84038 16.3348 6.02588 16.5879C6.02996 16.5935 6.03392 16.5992 6.03788 16.6047C6.07118 16.6517 6.10141 16.7008 6.1284 16.7517C6.13858 16.7709 6.14842 16.7903 6.1577 16.81C6.16053 16.8151 6.16302 16.8205 6.16551 16.826Z" fill="#FFB200"/>
<path d="M6.28378 17.5083C6.27208 17.6411 6.24097 17.7716 6.19145 17.8954C6.06185 18.2197 5.81224 18.4817 5.49451 18.6267C5.17678 18.7718 4.81536 18.7888 4.48539 18.6743C4.41519 18.65 4.34708 18.62 4.28173 18.5847C4.23045 18.5569 4.18101 18.5258 4.13373 18.4917C4.4665 18.4065 4.85098 18.2697 5.24869 18.0877C5.64641 17.9058 6.0017 17.7044 6.28378 17.5083Z" fill="#FF9100"/>
<path d="M6.22644 16.9839C6.00637 17.1636 5.57097 17.4157 5.0506 17.6537C4.53023 17.8916 4.05489 18.0564 3.77508 18.1055C3.74542 18.0573 3.71874 18.0074 3.69519 17.956C3.69406 17.9535 3.69304 17.9511 3.69191 17.9488C3.6815 17.9261 3.67188 17.9026 3.66295 17.8793C3.64212 17.8255 3.62474 17.7705 3.6109 17.7145C3.6109 17.7123 3.60976 17.71 3.60931 17.7077C3.54518 17.4396 3.56409 17.1583 3.66354 16.9011C3.76298 16.6439 3.93826 16.4231 4.16612 16.2678C4.01236 16.5069 3.9372 16.7881 3.95114 17.072C3.9553 17.1556 3.96727 17.2386 3.98689 17.32L3.98859 17.3268C3.98927 17.3297 3.99028 17.3333 3.99153 17.3381C4.06078 17.5715 4.31208 17.6692 4.55456 17.6472C5.01665 17.6054 6.01734 17.0644 6.23017 16.9396C6.24533 16.975 6.2149 16.9476 6.22644 16.9839Z" fill="#FF9100"/>
<path d="M5.24912 18.0877C5.64673 17.9058 6.00167 17.7044 6.28375 17.5083C6.27895 17.5636 6.27071 17.6185 6.25909 17.6728C6.04207 17.8319 5.69504 18.0287 5.29076 18.2137C4.90345 18.3907 4.5424 18.5211 4.28215 18.5847C4.23088 18.5569 4.18144 18.5258 4.13416 18.4917C4.46704 18.4065 4.85174 18.2697 5.24912 18.0877Z" fill="#D66B09"/>
<path d="M6.15791 16.8096C6.16051 16.815 6.163 16.8209 6.16549 16.8259C6.18908 16.8773 6.20941 16.9302 6.22636 16.9843C6.00617 17.1638 5.57089 17.4158 5.05052 17.6539C4.53015 17.892 4.05481 18.0566 3.775 18.1057C3.74534 18.0575 3.71866 18.0076 3.69512 17.9562L3.69183 17.9489C3.95728 17.9184 4.44122 17.759 4.97166 17.5164C5.52303 17.264 5.97347 16.9908 6.15791 16.8096Z" fill="#D66B09"/>
<path d="M3.57123 17.5054L3.57553 17.4139C3.76075 17.4228 4.24424 17.2668 4.75148 17.0348C5.3566 16.7579 5.74719 16.4934 5.81994 16.375L5.8979 16.4231C5.80139 16.5797 5.35592 16.8589 4.78905 17.118C4.26223 17.3593 3.77263 17.5145 3.57123 17.5054Z" fill="#D66B09"/>
<path d="M3.63709 17.0432L3.62317 16.9527C3.83125 16.9209 4.19174 16.7954 4.564 16.6251C4.95402 16.4467 5.2912 16.2503 5.44407 16.1125L5.5054 16.1804C5.34608 16.324 4.99996 16.5262 4.60202 16.7082C4.22263 16.8818 3.85286 17.0102 3.63709 17.0432Z" fill="#D66B09"/>
<path d="M3.60925 17.7537V17.6618C3.82175 17.6618 4.3213 17.4988 4.85253 17.2557C5.40979 17.0008 5.87698 16.715 5.98877 16.5605L6.06299 16.6143C5.94091 16.7828 5.46987 17.074 4.89066 17.3384C4.34008 17.5911 3.83713 17.7538 3.60925 17.7537Z" fill="#D66B09"/>
<path d="M4.48706 18.6971L4.48536 18.6745L4.47461 18.6543L4.4788 18.652H4.48355C4.66719 18.6381 5.01693 18.5232 5.37459 18.3596C5.73418 18.1951 6.04104 18.0112 6.17546 17.8796L6.20748 17.9123C6.06955 18.0473 5.75771 18.2347 5.39372 18.4013C5.02598 18.5689 4.67862 18.6825 4.48706 18.6971Z" fill="#D66B09"/>
<path d="M4.93095 18.8056C4.63296 18.8057 4.3425 18.712 4.10078 18.5378L4.00256 18.4668L4.1199 18.4367C4.46138 18.3494 4.84405 18.2104 5.22536 18.0362C5.60667 17.8619 5.96173 17.6628 6.25128 17.4617L6.35074 17.3926L6.34021 17.5133C6.30966 17.866 6.14795 18.1944 5.88703 18.4337C5.62611 18.6729 5.28496 18.8056 4.93095 18.8056ZM4.27129 18.5135C4.45176 18.6194 4.65508 18.6802 4.86404 18.6908C5.073 18.7015 5.28144 18.6615 5.47171 18.5745C5.66197 18.4874 5.82845 18.3558 5.95704 18.1908C6.08563 18.0257 6.17255 17.8321 6.21043 17.6263C5.93673 17.8066 5.61516 17.9826 5.27266 18.1394C4.93016 18.2961 4.58664 18.4244 4.2714 18.5135H4.27129Z" fill="#371A45"/>
<path d="M6.94636 16.6802C7.02918 16.8613 6.76023 17.1771 6.28376 17.5082C6.00168 17.7043 5.64673 17.9057 5.24913 18.0877C4.85152 18.2696 4.46693 18.4064 4.13416 18.4916C3.57204 18.6357 3.15724 18.6325 3.07441 18.4516C2.99928 18.2873 3.21415 18.0118 3.61085 17.7145C3.62471 17.7705 3.64209 17.8255 3.6629 17.8793C3.55326 17.9698 3.4994 18.0414 3.51829 18.0829C3.53719 18.1244 3.6302 18.1308 3.77503 18.1056C4.05484 18.0564 4.5303 17.8918 5.05055 17.6538C5.57081 17.4157 6.00621 17.1637 6.22639 16.9841C6.34022 16.8911 6.39612 16.8175 6.37722 16.7752C6.35832 16.7328 6.26871 16.7276 6.12829 16.7514C6.10131 16.7005 6.07107 16.6513 6.03777 16.6043C6.52228 16.4983 6.87123 16.5159 6.94636 16.6802Z" fill="#FFD766"/>
<path d="M3.65453 17.8574C3.65725 17.8648 3.66008 17.8721 3.66291 17.8801C3.55327 17.9706 3.4993 18.0421 3.5183 18.0837C3.53731 18.1254 3.63032 18.1316 3.77504 18.1063C3.9606 18.0738 4.23238 17.9903 4.54626 17.8687C4.54122 17.8942 4.54122 17.9204 4.54626 17.9459C4.42508 17.9912 4.30763 18.0316 4.19629 18.0658C3.71201 18.2146 3.45947 18.2129 3.42982 18.1476C3.41251 18.1085 3.46275 18.0125 3.65453 17.8574Z" fill="#FFAA39"/>
<path d="M3.61841 17.7915L3.62972 17.806C3.54744 17.8685 3.46991 17.9371 3.39777 18.0111C3.44061 17.948 3.51416 17.8748 3.61841 17.7915Z" fill="#FF9100"/>
<path d="M3.64216 17.8209L3.63031 17.8059C3.63209 17.8044 3.6341 17.8029 3.63611 17.8015L3.64216 17.8209Z" fill="#FF9100"/>
<path d="M3.39801 18.011C3.35275 18.0766 3.34144 18.1317 3.36248 18.1772C3.38353 18.2227 3.43037 18.2462 3.49657 18.2564C3.66878 18.2837 3.96511 18.2128 4.21811 18.1351C4.33262 18.0999 4.45335 18.0584 4.57804 18.0117C4.60614 18.0445 4.64262 18.0692 4.68361 18.0829C4.49952 18.1533 4.32085 18.2128 4.15351 18.2596C3.55687 18.4265 3.29776 18.3817 3.25692 18.2926C3.23429 18.2434 3.26699 18.1482 3.39801 18.011Z" fill="#FFAA39"/>
<path d="M5.22514 18.0987C4.83625 18.2752 4.46071 18.4082 4.13461 18.4916C3.5726 18.6356 3.15769 18.6324 3.07486 18.4514C2.99984 18.2872 3.21471 18.0117 3.61141 17.7144C3.61549 17.7309 3.62001 17.7473 3.62465 17.7637L3.60202 17.734C3.37176 17.9103 3.11322 18.1557 3.19016 18.3235C3.21992 18.3885 3.29018 18.4235 3.3833 18.4383C3.60225 18.4728 3.94611 18.3948 4.1741 18.3311C4.39021 18.2697 4.60296 18.1969 4.81147 18.1132C4.92111 18.1273 5.06152 18.122 5.22514 18.0987Z" fill="#FFAA39"/>
<path d="M4.57803 18.0125C4.45357 18.0592 4.33261 18.1007 4.21811 18.1359C3.96511 18.2136 3.66877 18.2845 3.49656 18.2572C3.43048 18.2468 3.38284 18.222 3.36248 18.178C3.34211 18.134 3.3532 18.0774 3.398 18.0118C3.47014 17.9378 3.54768 17.8692 3.62996 17.8066L3.64127 17.821C3.64535 17.8335 3.64976 17.8458 3.65417 17.8581C3.46182 18.0135 3.41215 18.1092 3.42957 18.1471C3.45922 18.2121 3.71177 18.2141 4.19604 18.0653C4.30738 18.0314 4.42483 17.9908 4.54601 17.9454C4.54842 17.9571 4.55222 17.9685 4.55732 17.9793C4.56279 17.9912 4.56975 18.0023 4.57803 18.0125Z" fill="#FFCF6E"/>
<path d="M3.62972 17.806C3.54744 17.8685 3.46991 17.9371 3.39777 18.0111C3.44039 17.948 3.51386 17.8748 3.61818 17.7915L3.62972 17.806Z" fill="#FFEC90"/>
<path d="M3.6416 17.8201L3.66423 17.8489C3.66084 17.8516 3.65733 17.8544 3.65405 17.8572C3.65009 17.845 3.64567 17.8326 3.6416 17.8201Z" fill="#FFEC90"/>
<path d="M5.95937 17.3388C5.6869 17.5067 5.40403 17.6571 5.11245 17.7891C4.93141 17.8718 4.75106 17.9475 4.57805 18.0119C4.56975 18.0015 4.56283 17.9901 4.55746 17.9779C4.55235 17.9671 4.54856 17.9557 4.54614 17.944C4.71926 17.8794 4.90007 17.8041 5.08145 17.7211C5.38978 17.58 5.67978 17.4259 5.91965 17.2754C6.34894 17.0063 6.51244 16.8139 6.48279 16.749C6.46503 16.7103 6.35641 16.6857 6.10442 16.7325L6.09424 16.6777L6.09085 16.6595C6.223 16.635 6.32642 16.6272 6.40223 16.6362C6.48053 16.6456 6.52941 16.6729 6.55023 16.7181C6.62366 16.8789 6.2694 17.1444 5.95937 17.3388Z" fill="#FFEC90"/>
<path d="M4.81089 18.1133C4.60238 18.197 4.38964 18.2697 4.17353 18.3312C3.94553 18.3949 3.60167 18.4729 3.38273 18.4384C3.28961 18.4235 3.21934 18.3886 3.18958 18.3236C3.11264 18.1558 3.37062 17.9104 3.60145 17.7341L3.62408 17.7638C3.6277 17.7764 3.63143 17.7891 3.63539 17.8017C3.63347 17.803 3.63154 17.8044 3.62985 17.8059L3.61853 17.7914C3.51406 17.8749 3.44059 17.9481 3.39812 18.011C3.26709 18.1486 3.23439 18.2434 3.25702 18.2929C3.29787 18.3819 3.55698 18.4267 4.15361 18.2598C4.32096 18.2131 4.49962 18.1536 4.68371 18.0832C4.72476 18.0982 4.76745 18.1083 4.81089 18.1133Z" fill="#FFCF6E"/>
<path d="M3.61841 17.7915L3.62972 17.806C3.54744 17.8685 3.46991 17.9371 3.39777 18.0111C3.44061 17.948 3.51416 17.8748 3.61841 17.7915Z" fill="#FFAA39"/>
<path d="M3.62408 17.7637L3.64671 17.793L3.6354 17.8016C3.63144 17.7892 3.62771 17.7766 3.62408 17.7637Z" fill="#FFEC90"/>
<path d="M6.13665 17.4332C5.86668 17.6123 5.53832 17.7919 5.1871 17.9526C5.06106 18.0103 4.93512 18.064 4.81089 18.1134C4.76741 18.1084 4.72468 18.0983 4.68359 18.0833C4.83849 18.0243 4.99736 17.9578 5.15644 17.8851C5.50403 17.7261 5.82877 17.5485 6.09558 17.3715C6.61199 17.0291 6.74742 16.8037 6.70658 16.7152C6.68395 16.6659 6.59117 16.6285 6.40209 16.6375C6.29853 16.6435 6.19558 16.6574 6.0941 16.679L6.07362 16.6832L6.05858 16.6106C6.34247 16.5516 6.69719 16.5165 6.7739 16.6843C6.87404 16.9018 6.4176 17.2469 6.13665 17.4332Z" fill="#FFEC90"/>
<path d="M3.46003 18.6516C3.25636 18.6516 3.0837 18.6075 3.02328 18.4753C2.90741 18.2219 3.32063 17.8615 3.5777 17.6691L3.64627 17.6178L3.66675 17.701C3.68002 17.7548 3.69668 17.8077 3.71665 17.8594L3.73136 17.8977L3.69979 17.9237C3.60588 18.0012 3.58099 18.0426 3.57442 18.0582C3.59094 18.0637 3.64039 18.0722 3.7661 18.0502C4.04976 18.0004 4.53324 17.8289 5.0277 17.6027C5.52216 17.3765 5.96808 17.1228 6.19132 16.9407C6.2901 16.86 6.31579 16.8171 6.32269 16.8011C6.30651 16.7957 6.25876 16.7875 6.13894 16.8078L6.09854 16.8147L6.07931 16.7786C6.05336 16.7298 6.02434 16.6827 5.99241 16.6376L5.94296 16.5676L6.02658 16.5494C6.33989 16.481 6.88289 16.404 6.99875 16.6574C7.12695 16.9374 6.62661 17.3403 6.31692 17.5555C6.02205 17.7606 5.66066 17.9629 5.27358 18.1399C4.88649 18.317 4.49692 18.4582 4.14899 18.5473C3.95528 18.5962 3.6878 18.6516 3.46003 18.6516ZM3.57929 17.8106C3.18168 18.1219 3.08279 18.3325 3.12669 18.4281C3.17648 18.5367 3.46614 18.6043 4.1207 18.4367C4.46219 18.3494 4.84485 18.2104 5.22617 18.0362C5.60748 17.8619 5.96254 17.6628 6.25208 17.4617C6.80651 17.0763 6.94523 16.8127 6.89545 16.7036C6.85177 16.6081 6.62785 16.5452 6.13226 16.6424C6.14176 16.6578 6.15093 16.6732 6.15987 16.6889C6.31635 16.6671 6.39997 16.6868 6.4295 16.7513C6.46186 16.822 6.41049 16.9072 6.26295 17.0277C6.02918 17.2185 5.58507 17.4716 5.07489 17.705C4.5647 17.9384 4.08257 18.1089 3.78499 18.1611C3.59739 18.1939 3.49918 18.1771 3.46682 18.1063C3.4374 18.0418 3.47723 17.9656 3.59603 17.8615C3.58992 17.8448 3.58449 17.8278 3.57884 17.8106H3.57929Z" fill="#371A45"/>
<g opacity="0.41">
<path d="M6.22675 16.9886C6.20118 17.0095 6.17274 17.0313 6.14143 17.0541C6.12853 17.0185 6.11409 16.9831 6.0981 16.948C6.09561 16.9426 6.09301 16.9367 6.09052 16.9318C6.08124 16.9119 6.0714 16.8924 6.06121 16.8734C6.03416 16.8225 6.00393 16.7734 5.97069 16.7263L5.9587 16.7097C5.82849 16.5323 5.65715 16.3892 5.45942 16.2927C5.26168 16.1961 5.04346 16.1491 4.82351 16.1555C4.60356 16.1619 4.38847 16.2217 4.19671 16.3296C4.00495 16.4375 3.84227 16.5904 3.72266 16.7751C3.8283 16.569 3.98491 16.3933 4.17761 16.2648C4.3703 16.1363 4.59266 16.0592 4.82355 16.0409C5.05444 16.0226 5.28618 16.0636 5.49673 16.1601C5.70728 16.2566 5.88964 16.4054 6.02647 16.5922C6.03066 16.5978 6.03462 16.6036 6.03858 16.609C6.07187 16.656 6.1021 16.7052 6.1291 16.7561C6.13936 16.7752 6.14913 16.7947 6.15841 16.8144C6.16101 16.8198 6.16361 16.8257 6.16599 16.8307C6.18951 16.882 6.2098 16.9347 6.22675 16.9886Z" fill="#CEB7FF"/>
</g>
<path d="M3.74696 18.168L3.7267 18.1353C3.69583 18.0852 3.66806 18.0332 3.64354 17.9797C3.63147 17.9532 3.62016 17.9266 3.6096 17.8997C3.48557 17.578 3.48329 17.222 3.60319 16.8987C3.72308 16.5754 3.9569 16.307 4.26072 16.1439C4.56453 15.9808 4.91745 15.9342 5.25317 16.013C5.58888 16.0917 5.8843 16.2903 6.08393 16.5715C6.1186 16.6205 6.15015 16.6717 6.17841 16.7247C6.19187 16.75 6.20477 16.7759 6.21688 16.8024C6.24133 16.8559 6.26249 16.9109 6.28024 16.967L6.29156 17.0037L6.26169 17.028C6.02792 17.2188 5.58381 17.4719 5.07362 17.7053C4.56344 17.9388 4.08131 18.1093 3.78373 18.1614L3.74696 18.168ZM4.92981 16.089C4.7184 16.0886 4.51008 16.1399 4.32294 16.2382C4.13579 16.3366 3.97547 16.4791 3.85586 16.6534C3.73626 16.8278 3.661 17.0286 3.6366 17.2386C3.6122 17.4486 3.6394 17.6614 3.71584 17.8585C3.72535 17.8833 3.73568 17.9078 3.74684 17.9322C3.76393 17.9697 3.78294 18.0064 3.80342 18.0421C4.09116 17.9845 4.55405 17.8181 5.02689 17.6018C5.49974 17.3855 5.92824 17.144 6.16008 16.964C6.1465 16.9252 6.13111 16.8867 6.11391 16.8493C6.10283 16.8249 6.09106 16.8011 6.07861 16.7779C6.05259 16.7291 6.02352 16.6819 5.9916 16.6368C5.87128 16.4672 5.71207 16.329 5.52733 16.2337C5.34259 16.1384 5.13769 16.0888 4.92981 16.089Z" fill="#371A45"/>
</svg>
